<svg width="32" height="41" fill="none">
  <path fill="url(#a)" fill-rule="evenodd" d="m18 4.24 12 12v19.8a4.2 4.2 0 0 1-4.2 4.2H4.2a4.2 4.2 0 0 1-4.2-4.2V8.44a4.2 4.2 0 0 1 4.2-4.2H18Z" clip-rule="evenodd"/>
  <g filter="url(#b)">
    <path fill="#fff" fill-opacity=".4" fill-rule="evenodd" d="M30 16.24h-7.588c-2.32 0-4.412-2.092-4.412-4.412V4.24l12 12Z" clip-rule="evenodd"/>
  </g>
  <path fill="#fff" fill-rule="evenodd" d="M16.79 22.253v-.009H6.003v.899h.003v1.767h-.003v.899h.003v2.715h-.002v.9h.002v2.715h-.001v.9h10.788V22.253h-.003Zm-.896 9.886v-2.716h-2.703v2.716h2.703Zm-3.601 0v-2.716h-1.78v2.716h1.78Zm-2.679 0v-2.716H6.905v2.716h2.71Zm-2.709-3.615h2.71V25.81h-2.71v2.715Zm0-3.614h8.99v-1.767h-8.99v1.767Zm8.99.899H13.19v2.715h2.703V25.81Zm-3.602 2.715V25.81h-1.78v2.715h1.78Z" clip-rule="evenodd"/>
  <defs>
    <linearGradient id="a" x1="0" x2="0" y1="4.24" y2="40.24" gradientUnits="userSpaceOnUse">
      <stop stop-color="#1ABF74"/>
      <stop offset="1" stop-color="#009F57"/>
    </linearGradient>
    <filter id="b" width="16" height="16" x="16" y=".24" color-interpolation-filters="sRGB" filterUnits="userSpaceOnUse">
      <feFlood flood-opacity="0" result="BackgroundImageFix"/>
      <feColorMatrix in="SourceAlpha" result="hardAlpha" values="0 0 0 0 0 0 0 0 0 0 0 0 0 0 0 0 0 0 127 0"/>
      <feOffset dy="-2"/>
      <feGaussianBlur stdDeviation="1"/>
      <feColorMatrix values="0 0 0 0 0 0 0 0 0 0 0 0 0 0 0 0 0 0 0.0909637 0"/>
      <feBlend in2="BackgroundImageFix" result="effect1_dropShadow_25831_316032"/>
      <feBlend in="SourceGraphic" in2="effect1_dropShadow_25831_316032" result="shape"/>
    </filter>
  </defs>
</svg>
