<?xml version="1.0" encoding="UTF-8"?>
<svg xmlns="http://www.w3.org/2000/svg" xmlns:xlink="http://www.w3.org/1999/xlink" viewBox="0 0 24 24">
  <defs>
    <path d="M13.293 5.293a1 1 0 011.414 0l6 6A1.006 1.006 0 0121 12l-.004-.085a.44.44 0 01.003.052L21 12a1.018 1.018 0 01-.146.52 1.035 1.035 0 01-.147.187l.08-.09a1.003 1.003 0 01-.007.008l-.073.082-6 6a1 1 0 01-1.414-1.414l4.292-4.294L4 13a1 1 0 01-.993-.883L3 12a1 1 0 011-1l13.585-.001-4.292-4.292a1 1 0 01-.083-1.32z" id="a"/>
  </defs>
  <g fill="none" fill-rule="evenodd">
    <mask id="b" fill="#fff">
      <use xlink:href="#a"/>
    </mask>
    <use fill="#000" fill-rule="nonzero" xlink:href="#a"/>
    <g mask="url(#b)">
      <path d="M0 0h24v24H0z"/>
    </g>
  </g>
</svg>
