<svg viewBox="0 0 64 64" fill="none" xmlns="http://www.w3.org/2000/svg">
<mask id="mask0" mask-type="alpha" maskUnits="userSpaceOnUse" x="0" y="0">
<circle cx="32" cy="32" r="32" fill="white"/>
</mask>
<g mask="url(#mask0)">
<mask id="mask1" mask-type="alpha" maskUnits="userSpaceOnUse" x="2" y="4" width="60" height="59">
<path d="M61.218 33.3938C61.2186 37.2308 60.4634 41.0303 58.9955 44.5754C57.5276 48.1205 55.3757 51.3417 52.6628 54.055C49.9499 56.7684 46.729 58.9208 43.1842 60.3893C39.6394 61.8578 35.84 62.6136 32.003 62.6136C24.2534 62.6136 16.8213 59.5351 11.3415 54.0553C5.8617 48.5756 2.7832 41.1434 2.7832 33.3938C2.7832 25.6442 5.8617 18.2121 11.3415 12.7323C16.8213 7.25251 24.2534 4.17401 32.003 4.17401C35.84 4.17401 39.6394 4.92984 43.1842 6.39833C46.729 7.86682 49.9499 10.0192 52.6628 12.7326C55.3757 15.446 57.5276 18.6672 58.9955 22.2122C60.4634 25.7573 61.2186 29.5568 61.218 33.3938Z" fill="white"/>
</mask>
<g mask="url(#mask1)">
<mask id="mask2" mask-type="alpha" maskUnits="userSpaceOnUse" x="2" y="1" width="61" height="61">
<path d="M62.6093 31.3069C62.6093 35.2348 61.8356 39.1243 60.3325 42.7532C58.8293 46.3821 56.6261 49.6794 53.8487 52.4569C51.0712 55.2343 47.7739 57.4375 44.145 58.9407C40.5161 60.4438 36.6266 61.2175 32.6987 61.2175C24.7646 61.2175 17.1555 58.0657 11.5453 52.4554C5.93501 46.8452 2.7832 39.2361 2.7832 31.302C2.7832 27.3736 3.55703 23.4838 5.06048 19.8546C6.56394 16.2253 8.76757 12.9278 11.5456 10.1503C14.3235 7.37274 17.6214 5.16965 21.2509 3.66679C24.8804 2.16394 28.7704 1.39077 32.6987 1.39142C36.6271 1.39142 40.5169 2.16524 44.1461 3.6687C47.7754 5.17215 51.0729 7.37579 53.8504 10.1538C56.628 12.9317 58.8311 16.2296 60.3339 19.8591C61.8368 23.4886 62.6099 27.3786 62.6093 31.3069Z" fill="white"/>
</mask>
<g mask="url(#mask2)">
<path d="M47.6996 65.8516L32.5632 66.0823L17.7187 65.8516C17.3283 64.5216 17.2942 63.1123 17.6199 61.765C18.0106 60.1972 19.0323 58.4694 21.3016 57.057C22.4793 56.3505 23.7459 55.8043 25.068 55.4327C25.44 55.3291 25.826 55.2255 26.2356 55.1314C26.6452 55.0372 27.149 54.9289 27.648 54.8442C28.1471 54.7594 28.6697 54.67 29.2205 54.5993L29.31 54.6464C29.1823 52.7607 28.7811 50.9035 28.1188 49.1333L36.8005 49.477C36.33 51.0584 36.1185 52.7055 36.1743 54.3545L36.212 54.3263C37.1983 54.4498 38.1774 54.6258 39.1451 54.8536L39.7571 55.0042C40.2656 55.1423 40.7458 55.2883 41.1978 55.4421C41.9965 55.7093 42.77 56.0464 43.5094 56.4496C45.3502 57.3665 46.7896 58.9282 47.5536 60.8375C48.1833 62.4412 48.2349 64.214 47.6996 65.8516Z" fill="#CD8B6D"/>
<path d="M48.0571 63.8503C48.0571 64.081 48.0288 64.3211 48.0053 64.4953C47.9504 64.952 47.8478 65.4017 47.6993 65.8371L32.5629 66.0677L17.7184 65.8371C17.5317 65.226 17.4287 64.5925 17.4124 63.9538C17.4124 63.8832 17.4124 63.8173 17.4124 63.742C17.3963 63.0717 17.4675 62.4023 17.6243 61.7505C17.7065 61.4311 17.8071 61.1167 17.9256 60.8089C17.9962 60.6441 18.0762 60.4746 18.1563 60.3098C18.879 58.9396 19.9698 57.7982 21.3059 57.0142L21.5225 56.8776L21.838 56.7034C22.8685 56.1531 23.9542 55.7128 25.0771 55.3899C25.449 55.2863 25.8351 55.1828 26.2447 55.0886C26.6543 54.9944 27.1581 54.8861 27.6571 54.8014C29.4556 57.3579 33.4386 60.8183 39.7662 54.9615C40.2747 55.0996 40.7549 55.2455 41.2069 55.3993C42.0056 55.6665 42.7791 56.0036 43.5185 56.4068C43.6362 56.468 43.7492 56.534 43.8622 56.5999C44.1117 56.7458 44.333 56.8918 44.5637 57.0471C45.9205 57.9713 46.966 59.2843 47.5627 60.8136C47.6286 60.9831 47.6898 61.1525 47.7369 61.3173C47.7964 61.4815 47.8436 61.6499 47.8782 61.8211C48.0336 62.4856 48.0938 63.1688 48.0571 63.8503Z" fill="#00A693"/>
<path d="M44.5549 57.0754C40.3176 59.4907 35.506 61.3127 30.9298 60.8654C27.4741 60.4845 24.2032 59.109 21.5137 56.9059L21.8291 56.7318C25.1247 59.2458 29.2302 60.7807 33.2555 60.3146C37.102 59.8438 40.5436 58.4078 43.8486 56.6282C44.1029 56.7882 44.3336 56.9201 44.5549 57.0754Z" fill="white"/>
<path d="M47.8701 61.8307C43.0215 63.3599 37.938 64.0073 32.8609 63.7422C28.6236 63.4738 24.3205 63.0878 20.2857 61.7224C19.4853 61.4494 18.7006 61.1528 17.9316 60.8326C18.0023 60.6678 18.0823 60.4983 18.1623 60.3336C23.1422 62.1736 28.3916 63.1789 33.6989 63.309C38.158 63.5027 42.6172 62.9277 46.8814 61.6094C47.1733 61.52 47.4605 61.4211 47.7477 61.327C47.8008 61.4916 47.8417 61.66 47.8701 61.8307Z" fill="white"/>
<path d="M21.8057 27.8009C21.8057 27.8009 17.7379 20.9319 16.0571 26.8217C14.3763 32.7114 18.4394 35.508 21.1041 34.9477C23.7689 34.3875 21.8057 27.8009 21.8057 27.8009Z" fill="#CD8B6D"/>
<path d="M21.3114 28.9216C21.3114 28.9216 18.5101 24.576 17.545 26.3274C16.5798 28.0788 16.8435 30.3246 16.8435 30.3246C16.8435 30.3246 17.4037 27.8717 19.2257 29.2699C19.2257 29.2699 17.4743 33.1965 21.0477 32.0948C21.0336 32.0759 22.5072 30.8942 21.3114 28.9216Z" fill="#B66C50"/>
<path d="M43.2651 26.958C43.2651 26.958 47.3281 20.089 49.0136 25.9788C50.6991 31.8685 46.6313 34.6698 43.9666 34.1049C41.3018 33.5399 43.2651 26.958 43.2651 26.958Z" fill="#CD8B6D"/>
<path d="M43.3267 28.5399C43.3267 28.5399 46.1515 24.1944 47.0931 25.9505C48.0347 27.7066 47.7946 29.9429 47.7946 29.9429C47.7946 29.9429 47.2344 27.49 45.4124 28.893C45.4124 28.893 47.1638 32.8148 43.5904 31.6943C43.6092 31.6896 42.1356 30.4985 43.3267 28.5399Z" fill="#B66C50"/>
<path d="M22.0793 18.3423C21.6744 18.7519 21.1001 30.3949 21.3778 34.8817C21.6556 39.3684 23.3411 51.9813 33.4351 51.9813C43.5292 51.9813 45.2052 34.7404 42.823 19.4628C42.8277 19.4628 32.0368 8.24826 22.0793 18.3423Z" fill="#E8B299"/>
<path d="M25.4164 25.9507C24.197 26.8217 23.5002 28.945 24.2065 30.3104C24.2157 30.324 24.229 30.3345 24.2444 30.3403C24.2599 30.3462 24.2767 30.3471 24.2927 30.343C24.3087 30.3388 24.323 30.3299 24.3337 30.3173C24.3444 30.3047 24.3509 30.2891 24.3524 30.2727C24.292 29.6546 24.3545 29.0306 24.5363 28.4367C24.7181 27.8428 25.0156 27.2907 25.4117 26.8123C25.65 26.5464 25.9397 26.3317 26.2635 26.1812C26.5872 26.0307 26.9381 25.9475 27.2949 25.9366C28.0906 25.8707 28.4484 26.7134 29.0746 27.0053C29.1041 27.0218 29.1379 27.0294 29.1717 27.027C29.2055 27.0246 29.2379 27.0124 29.2648 26.992C29.2918 26.9715 29.3122 26.9436 29.3236 26.9117C29.335 26.8798 29.3368 26.8452 29.3288 26.8123C28.8392 25.0468 26.6452 25.0797 25.4164 25.9507Z" fill="#390A0A"/>
<path d="M29.6549 29.9051C29.6549 32.1885 28.4637 34.0388 26.9901 34.0388C25.5165 34.0388 24.3301 32.1885 24.3301 29.9051C24.3301 27.6217 25.5212 25.7714 26.9901 25.7714C28.459 25.7714 29.6549 27.6217 29.6549 29.9051Z" fill="white"/>
<path d="M29.0888 30.0421C29.0888 31.7417 28.1801 33.1211 27.0596 33.1211C25.9391 33.1211 25.0352 31.7417 25.0352 30.0421C25.0352 28.3425 25.9391 26.963 27.0596 26.963C28.1801 26.963 29.0888 28.3425 29.0888 30.0421Z" fill="#3D79CA"/>
<path d="M28.77 30.075C28.77 31.5109 28.0214 32.6738 27.1033 32.6738C26.1853 32.6738 25.4414 31.5109 25.4414 30.075C25.4414 28.639 26.19 27.4808 27.1033 27.4808C28.0167 27.4808 28.77 28.6437 28.77 30.075Z" fill="#390A0A"/>
<path d="M29.0881 27.8386C29.0881 28.121 28.6173 28.3517 28.0382 28.3517C27.4591 28.3517 26.9883 28.121 26.9883 27.8386C26.9883 27.5561 27.4591 27.3301 28.0382 27.3301C28.6173 27.3301 29.0881 27.5561 29.0881 27.8386Z" fill="white"/>
<path d="M39.7185 25.9507C40.9379 26.8217 41.6394 28.945 40.9285 30.3104C40.9192 30.324 40.906 30.3345 40.8905 30.3403C40.8751 30.3462 40.8582 30.3471 40.8422 30.343C40.8263 30.3388 40.812 30.3299 40.8013 30.3173C40.7906 30.3047 40.784 30.2891 40.7825 30.2727C40.8451 29.6544 40.7836 29.0299 40.6017 28.4357C40.4198 27.8415 40.1211 27.2896 39.7232 26.8123C39.485 26.5464 39.1952 26.3317 38.8715 26.1812C38.5478 26.0307 38.1969 25.9475 37.84 25.9366C37.0444 25.8707 36.6865 26.7134 36.0604 27.0053C36.0309 27.0204 35.9978 27.0268 35.9648 27.0238C35.9318 27.0208 35.9004 27.0084 35.8743 26.9881C35.8481 26.9679 35.8282 26.9406 35.817 26.9094C35.8057 26.8783 35.8036 26.8446 35.8108 26.8123C36.2958 25.0468 38.4944 25.0797 39.7185 25.9507Z" fill="#390A0A"/>
<path d="M40.6197 29.9051C40.6197 32.1885 39.4286 34.0388 37.9597 34.0388C36.4908 34.0388 35.2949 32.1885 35.2949 29.9051C35.2949 27.6217 36.4861 25.7714 37.9597 25.7714C39.4333 25.7714 40.6197 27.6217 40.6197 29.9051Z" fill="white"/>
<path d="M40.0536 30.0421C40.0536 31.7417 39.145 33.1211 38.0245 33.1211C36.9039 33.1211 36 31.7417 36 30.0421C36 28.3425 36.9086 26.963 38.0245 26.963C39.1403 26.963 40.0536 28.3425 40.0536 30.0421Z" fill="#3D79CA"/>
<path d="M39.734 30.075C39.734 31.5109 38.9902 32.6738 38.0721 32.6738C37.154 32.6738 36.4102 31.5109 36.4102 30.075C36.4102 28.639 37.154 27.4808 38.0721 27.4808C38.9902 27.4808 39.734 28.6437 39.734 30.075Z" fill="#390A0A"/>
<path d="M40.0541 27.8386C40.0541 28.121 39.5833 28.3517 39.0042 28.3517C38.4251 28.3517 37.959 28.121 37.959 27.8386C37.959 27.5561 38.4298 27.3301 39.0042 27.3301C39.5786 27.3301 40.0541 27.5561 40.0541 27.8386Z" fill="white"/>
<path d="M23.6562 26.3887C23.6562 26.3887 25.709 22.3915 29.9368 25.9179C29.9368 25.932 26.5093 24.6749 23.6562 26.3887Z" fill="#7C2C14"/>
<path d="M35.3027 25.9319C35.3027 25.9319 37.3602 21.9347 41.588 25.4611C41.588 25.4752 38.1605 24.2181 35.3027 25.9319Z" fill="#7C2C14"/>
<path d="M43.4295 41.2521C43.3142 41.102 43.185 40.9633 43.0434 40.8378C42.2054 40.0986 41.1602 40.0374 39.922 39.8067C39.1278 39.7148 38.3238 39.8469 37.6009 40.1881C37.4571 40.192 37.3145 40.2158 37.1772 40.2587C36.0755 40.6071 35.7648 39.8773 34.9267 39.5478C33.71 39.0211 32.3505 38.9231 31.0708 39.27C30.3458 39.4771 29.6584 40.0468 28.971 40.334C28.1283 40.6824 26.7677 40.3811 25.8684 40.334C24.5381 40.1548 23.1861 40.4249 22.0267 41.1014C20.4307 42.043 19.9316 43.8321 20.0446 45.5599C20.0581 45.7777 20.0832 45.9946 20.1199 46.2097C20.1879 46.6697 20.2998 47.1222 20.4542 47.5609C21.3958 50.2774 24.0135 51.8311 26.5323 52.8715C29.2818 53.9968 32.422 54.5476 35.2751 54.0627C35.5058 54.025 35.7459 53.9779 35.9672 53.9214C37.3596 53.6146 38.6629 52.9919 39.7764 52.1013C40.8899 51.2106 41.7838 50.076 42.389 48.785C43.5001 46.5486 44.9549 43.2577 43.4295 41.2521Z" fill="#8E3F20"/>
<path d="M35.9589 53.8881C35.7329 53.9446 35.4881 53.9917 35.2668 54.0294C35.8028 53.4781 36.215 52.8186 36.4756 52.0952C36.7362 51.3718 36.8393 50.601 36.7781 49.8345C36.5097 47.6971 34.3911 46.7602 32.4278 47.311C31.4495 47.5321 30.5457 48.0043 29.8054 48.681C29.4147 49.0953 28.9721 49.6462 29.038 50.2676C29.5512 51.5482 30.3045 51.8872 31.2885 51.2846V50.2676C31.0013 50.0793 31.2885 49.6226 31.5662 49.7968C33.9203 51.2093 29.3535 53.5633 28.539 50.6772C27.781 47.9842 32.4796 46.134 34.4664 46.6895C38.0069 47.6923 37.8044 51.4258 35.9589 53.8881Z" fill="#B75B3E"/>
<path d="M41.5033 49.8442C39.1493 51.9063 37.9817 48.347 38.6785 46.4544C39.4035 44.4582 40.9195 41.8735 43.0381 40.8047C43.1797 40.9303 43.309 41.069 43.4242 41.2191C42.6154 41.6007 41.8989 42.1532 41.3244 42.8386C40.3274 43.8935 39.585 45.1626 39.154 46.5486C38.8197 47.4386 38.8485 48.4243 39.234 49.2934L41.1173 49.4299C41.5192 48.9811 41.8024 48.4389 41.9412 47.8527L41.122 46.3414C41.009 46.4779 40.8206 46.3414 40.8489 46.1813L40.9148 45.8471C40.9258 45.8044 40.9483 45.7656 40.9798 45.7349C41.0114 45.7042 41.0508 45.6827 41.0937 45.6729C43.33 45.2303 42.4214 49.0297 41.5033 49.8442Z" fill="#B75B3E"/>
<path d="M26.3161 48.7845C25.6711 49.2554 24.3341 49.9427 23.6749 49.0435C23.1806 48.3608 23.0346 47.4616 23.8068 46.9296C23.8408 46.9088 23.8799 46.8978 23.9197 46.8978C23.9596 46.8978 23.9987 46.9088 24.0327 46.9296L24.2776 47.0661C24.2966 47.0782 24.3117 47.0954 24.3212 47.1157C24.3307 47.1361 24.3342 47.1588 24.3312 47.1811C24.3282 47.2034 24.3189 47.2243 24.3044 47.2415C24.2899 47.2587 24.2708 47.2713 24.2493 47.278C22.931 47.584 25.4357 49.1847 26.3161 48.0925C27.0412 47.0849 27.0271 46.1622 26.2738 45.3241C25.6624 44.7025 24.8812 44.275 24.028 44.0953C23.2347 43.9188 22.4045 44.029 21.6848 44.4065C20.9651 44.7841 20.4025 45.4044 20.0968 46.1575C20.0601 45.9424 20.035 45.7255 20.0215 45.5078C20.3197 44.8174 20.8486 44.2521 21.5176 43.9085C22.1866 43.565 22.9542 43.4646 23.6891 43.6245C25.8171 44.0388 29.0939 46.7695 26.3161 48.7845Z" fill="#B75B3E"/>
<path d="M37.4735 42.3818C37.4735 42.3818 32.9067 48.5493 27.0781 42.3818C27.0781 42.3818 30.6233 41.4684 31.8803 42.3818L32.3511 42.8526C32.3511 42.8526 33.7071 41.4684 37.4735 42.3818Z" fill="#B66C50"/>
<path d="M37.4735 42.3819C37.4735 42.3819 32.9067 48.5494 27.0781 42.3819C27.0781 42.3819 32.9067 44.783 37.4735 42.3819Z" fill="#CD8B6D"/>
<path d="M37.2247 23.4504C35.365 23.7941 33.7454 24.392 31.8151 24.0342C30.7551 23.7597 29.6608 23.6408 28.5666 23.6811C28.4819 23.6811 28.4442 23.8224 28.5666 23.8412C31.688 24.3685 34.2963 24.957 37.3141 23.6058C37.3848 23.5634 37.3142 23.4363 37.2247 23.4504Z" fill="#CD8B6D"/>
<path d="M35.6746 22.636C34.8459 22.5764 34.0134 22.5969 33.1887 22.6972C32.1011 22.7584 31.0277 22.4618 29.9354 22.5136C29.9112 22.5188 29.8894 22.5321 29.8738 22.5514C29.8581 22.5707 29.8496 22.5947 29.8496 22.6195C29.8496 22.6443 29.8581 22.6684 29.8738 22.6877C29.8894 22.707 29.9112 22.7203 29.9354 22.7255C31.8893 22.9044 33.7019 23.1963 35.6746 22.8338C35.7734 22.8149 35.7781 22.6454 35.6746 22.636Z" fill="#CD8B6D"/>
<path d="M33.2453 36.1998C32.9205 35.6301 33.2453 34.5519 33.2453 33.8834C33.2453 32.9936 33.316 32.1273 33.316 31.2328C33.316 30.5219 33.4996 28.8787 32.9581 28.1396C32.9111 27.4475 32.2849 27.4852 31.9836 28.0784C31.4798 29.0718 31.5646 30.3759 31.5646 31.4635C31.5646 32.4051 31.541 33.3577 31.4939 34.3212C31.461 34.9568 31.494 35.9079 31.235 36.4681C30.4017 35.9973 29.3895 35.6113 30.0392 36.9813C30.364 37.6687 31.4798 39.1752 32.3367 39.0858C33.2783 38.9963 34.5024 37.438 34.8414 36.6329C35.3404 35.3994 33.9139 35.7713 33.2453 36.1998Z" fill="#CD8B6D"/>
</g>
</g>
</g>
</svg>
