<?xml version="1.0" encoding="UTF-8"?>
<svg xmlns="http://www.w3.org/2000/svg" xmlns:xlink="http://www.w3.org/1999/xlink" viewBox="0 0 24 24">
  <title>Bell</title>
  <g id="icon/bell" stroke="none" stroke-width="1" fill="none" fill-rule="evenodd">
    <path fill="#000" d="M17.455 13.82V9.274a5.455 5.455 0 10-10.91 0v4.546a3.62 3.62 0 01-.486 1.819h11.882a3.62 3.62 0 01-.486-1.819zm3.636 3.637H2.909c-1.212 0-1.212-1.818 0-1.818a1.818 1.818 0 001.818-1.819V9.274a7.273 7.273 0 1114.546 0v4.546c0 1.004.814 1.819 1.818 1.819 1.212 0 1.212 1.818 0 1.818zm-6.732 3.184a2.727 2.727 0 01-4.718 0 .91.91 0 01.786-1.365h3.146c.7 0 1.138.759.786 1.365z" id="path-1"/>
  </g>
</svg>
