<svg fill="none" xmlns="http://www.w3.org/2000/svg" viewBox="0 0 18 18">
  <path fill-rule="evenodd" clip-rule="evenodd"
    d="M9.336.83a.75.75 0 0 0-.671 0l-7.5 3.75a.75.75 0 0 0 0 1.34l7.5 3.75a.75.75 0 0 0 .67 0l7.5-3.75a.75.75 0 0 0 0-1.34L9.336.83ZM3.177 5.25 9 2.339l5.823 2.911L9 8.161 3.177 5.25Zm-1.341 6.83a.75.75 0 1 0-.671 1.34l7.5 3.75a.75.75 0 0 0 .67 0l7.5-3.75a.75.75 0 1 0-.67-1.34L9 15.661l-7.164-3.583ZM.829 8.664a.75.75 0 0 1 1.007-.336L9 11.911l7.165-3.582a.75.75 0 0 1 .67 1.342l-7.5 3.75a.75.75 0 0 1-.67 0l-7.5-3.75a.75.75 0 0 1-.336-1.006Z"
    fill="#000" />
  <mask id="a" style="mask-type:alpha" maskUnits="userSpaceOnUse" x="0" y="0" width="18" height="18">
    <path fill-rule="evenodd" clip-rule="evenodd"
      d="M9.336.83a.75.75 0 0 0-.671 0l-7.5 3.75a.75.75 0 0 0 0 1.34l7.5 3.75a.75.75 0 0 0 .67 0l7.5-3.75a.75.75 0 0 0 0-1.34L9.336.83ZM3.177 5.25 9 2.339l5.823 2.911L9 8.161 3.177 5.25Zm-1.341 6.83a.75.75 0 1 0-.671 1.34l7.5 3.75a.75.75 0 0 0 .67 0l7.5-3.75a.75.75 0 1 0-.67-1.34L9 15.661l-7.164-3.583ZM.829 8.664a.75.75 0 0 1 1.007-.336L9 11.911l7.165-3.582a.75.75 0 0 1 .67 1.342l-7.5 3.75a.75.75 0 0 1-.67 0l-7.5-3.75a.75.75 0 0 1-.336-1.006Z"
      fill="#fff" />
  </mask>
  <g mask="url(#a)">
    <path fill="#000" d="M0 0h18v18H0z" />
  </g>
</svg>
