<svg width="26" height="26" viewBox="0 0 26 26" fill="none" xmlns="http://www.w3.org/2000/svg">
<path d="M17.5686 8.28784C17.4532 8.1724 17.3159 8.08077 17.1646 8.01825C17.0134 7.95572 16.8511 7.92353 16.6873 7.92353C16.5234 7.92353 16.3612 7.95572 16.2099 8.01825C16.0586 8.08077 15.9213 8.1724 15.806 8.28784L12.9634 11.1206L10.1208 8.28784C9.8871 8.05592 9.57008 7.92563 9.23952 7.92563C8.90896 7.92563 8.59194 8.05592 8.3582 8.28784C8.12446 8.51975 7.99315 8.8343 7.99315 9.16228C7.99315 9.49027 8.12446 9.80482 8.3582 10.0367L11.2132 12.8571L8.3582 15.6775C8.24186 15.792 8.14951 15.9283 8.0865 16.0783C8.02348 16.2284 7.99103 16.3894 7.99103 16.552C7.99103 16.7146 8.02348 16.8756 8.0865 17.0257C8.14951 17.1757 8.24186 17.312 8.3582 17.4264C8.4736 17.5419 8.61088 17.6335 8.76215 17.696C8.91341 17.7586 9.07565 17.7908 9.23952 17.7908C9.40339 17.7908 9.56563 17.7586 9.71689 17.696C9.86815 17.6335 10.0054 17.5419 10.1208 17.4264L12.9634 14.5937L15.806 17.4264C15.9213 17.5419 16.0586 17.6335 16.2099 17.696C16.3612 17.7586 16.5234 17.7908 16.6873 17.7908C16.8511 17.7908 17.0134 17.7586 17.1646 17.696C17.3159 17.6335 17.4532 17.5419 17.5686 17.4264C17.6849 17.312 17.7773 17.1757 17.8403 17.0257C17.9033 16.8756 17.9358 16.7146 17.9358 16.552C17.9358 16.3894 17.9033 16.2284 17.8403 16.0783C17.7773 15.9283 17.6849 15.792 17.5686 15.6775L14.7136 12.8571L17.5686 10.0367C17.6849 9.92224 17.7773 9.78602 17.8403 9.63594C17.9033 9.48585 17.9358 9.32487 17.9358 9.16228C17.9358 8.9997 17.9033 8.83872 17.8403 8.68863C17.7773 8.53855 17.6849 8.40233 17.5686 8.28784ZM21.7393 4.1496C20.5943 2.97328 19.2246 2.035 17.7101 1.38952C16.1957 0.744043 14.5669 0.404286 12.9187 0.390075C11.2705 0.375865 9.63602 0.687485 8.11052 1.30675C6.58501 1.92602 5.19909 2.84054 4.03361 3.99694C2.86813 5.15334 1.94643 6.52846 1.3223 8.04208C0.698164 9.55569 0.384096 11.1775 0.398418 12.8128C0.41274 14.4482 0.755166 16.0643 1.40571 17.5669C2.05626 19.0695 3.0019 20.4286 4.18746 21.5647C5.33252 22.741 6.70221 23.6793 8.21664 24.3248C9.73106 24.9702 11.3599 25.31 13.0081 25.3242C14.6562 25.3384 16.2908 25.0268 17.8163 24.4075C19.3418 23.7883 20.7277 22.8737 21.8932 21.7173C23.0587 20.5609 23.9804 19.1858 24.6045 17.6722C25.2286 16.1586 25.5427 14.5368 25.5284 12.9015C25.514 11.2661 25.1716 9.65 24.5211 8.14738C23.8705 6.64475 22.9249 5.28573 21.7393 4.1496ZM19.9891 19.8281C18.3655 21.4408 16.2287 22.4451 13.9425 22.6698C11.6564 22.8946 9.36241 22.3259 7.45147 21.0607C5.54052 19.7955 4.13081 17.912 3.46252 15.7311C2.79422 13.5502 2.90869 11.2069 3.78642 9.10044C4.66415 6.99393 6.25083 5.25454 8.27614 4.17862C10.3015 3.10269 12.6401 2.7568 14.8936 3.19986C17.1471 3.64293 19.1761 4.84755 20.6349 6.60848C22.0936 8.36941 22.8919 10.5777 22.8937 12.8571C22.8982 14.1519 22.6437 15.4347 22.1451 16.6313C21.6466 17.8279 20.9137 18.9144 19.9891 19.8281Z" fill="#000"/>
</svg>
