<svg width="26" height="26" viewBox="0 0 26 26" fill="none" xmlns="http://www.w3.org/2000/svg">
<path d="M16.3812 8.85506L10.9906 14.2161L8.91732 12.159C8.80468 12.0284 8.66606 11.9224 8.51017 11.8476C8.35427 11.7728 8.18447 11.7307 8.01142 11.7241C7.83837 11.7175 7.66581 11.7464 7.50456 11.8091C7.34332 11.8718 7.19687 11.9668 7.07441 12.0883C6.95196 12.2098 6.85614 12.3551 6.79296 12.5151C6.72979 12.6751 6.70063 12.8463 6.70732 13.018C6.714 13.1897 6.75638 13.3582 6.83181 13.5129C6.90723 13.6676 7.01406 13.8051 7.1456 13.9169L10.0985 16.8592C10.2159 16.9748 10.3551 17.0662 10.5082 17.1282C10.6613 17.1903 10.8253 17.2217 10.9906 17.2208C11.3203 17.2194 11.6362 17.0895 11.8702 16.8592L18.1529 10.6255C18.2707 10.5095 18.3642 10.3717 18.428 10.2197C18.4918 10.0678 18.5246 9.90484 18.5246 9.74026C18.5246 9.57567 18.4918 9.41271 18.428 9.26078C18.3642 9.10886 18.2707 8.97096 18.1529 8.85506C17.9175 8.62285 17.599 8.49252 17.2671 8.49252C16.9351 8.49252 16.6166 8.62285 16.3812 8.85506ZM12.9634 0.38961C10.4782 0.38961 8.04879 1.12082 5.98241 2.49077C3.91603 3.86072 2.30549 5.80788 1.35444 8.08602C0.403394 10.3642 0.154556 12.871 0.639396 15.2894C1.12424 17.7079 2.32098 19.9294 4.07829 21.673C5.8356 23.4166 8.07454 24.604 10.512 25.0851C12.9495 25.5662 15.476 25.3193 17.772 24.3756C20.068 23.432 22.0305 21.834 23.4112 19.7837C24.7919 17.7335 25.5288 15.323 25.5288 12.8571C25.5288 11.2199 25.2038 9.59865 24.5724 8.08602C23.9409 6.57339 23.0153 5.19898 21.8485 4.04126C20.6817 2.88355 19.2965 1.9652 17.772 1.33864C16.2475 0.712093 14.6135 0.38961 12.9634 0.38961ZM12.9634 22.8312C10.9752 22.8312 9.03171 22.2462 7.37861 21.1502C5.72551 20.0543 4.43707 18.4965 3.67623 16.674C2.91539 14.8515 2.71632 12.8461 3.1042 10.9113C3.49207 8.97653 4.44946 7.19933 5.85531 5.80444C7.26116 4.40955 9.05231 3.45961 11.0023 3.07476C12.9522 2.68991 14.9734 2.88743 16.8103 3.64234C18.6471 4.39725 20.2171 5.67565 21.3216 7.31587C22.4262 8.95609 23.0158 10.8845 23.0158 12.8571C23.0158 15.5024 21.9567 18.0393 20.0715 19.9098C18.1863 21.7803 15.6294 22.8312 12.9634 22.8312Z" fill="#000"/>
</svg>
