<svg width="26" height="26" viewBox="0 0 26 26" fill="none" xmlns="http://www.w3.org/2000/svg">
<path d="M12.9634 6.62337C12.6301 6.62337 12.3105 6.75473 12.0749 6.98854C11.8392 7.22235 11.7069 7.53947 11.7069 7.87013V12.8571C11.7069 13.1878 11.8392 13.5049 12.0749 13.7387C12.3105 13.9725 12.6301 14.1039 12.9634 14.1039C13.2967 14.1039 13.6163 13.9725 13.8519 13.7387C14.0876 13.5049 14.2199 13.1878 14.2199 12.8571V7.87013C14.2199 7.53947 14.0876 7.22235 13.8519 6.98854C13.6163 6.75473 13.2967 6.62337 12.9634 6.62337ZM14.1194 17.3704C14.0919 17.2909 14.0539 17.2155 14.0063 17.146L13.8555 16.959C13.6788 16.786 13.4545 16.6688 13.2107 16.6222C12.9669 16.5756 12.7147 16.6017 12.4859 16.6971C12.3336 16.7603 12.1934 16.8488 12.0713 16.959C11.9548 17.0755 11.8627 17.2136 11.8001 17.3655C11.7376 17.5174 11.7059 17.6801 11.7069 17.8442C11.7088 18.0071 11.743 18.168 11.8074 18.3179C11.8638 18.4726 11.9538 18.6131 12.0711 18.7295C12.1884 18.8458 12.33 18.9352 12.4859 18.9912C12.6363 19.0571 12.799 19.0912 12.9634 19.0912C13.1278 19.0912 13.2905 19.0571 13.4409 18.9912C13.5968 18.9352 13.7384 18.8458 13.8557 18.7295C13.9729 18.6131 14.063 18.4726 14.1194 18.3179C14.1838 18.168 14.218 18.0071 14.2199 17.8442C14.2261 17.7611 14.2261 17.6778 14.2199 17.5948C14.1983 17.5153 14.1644 17.4396 14.1194 17.3704ZM12.9634 0.38961C10.4782 0.38961 8.04879 1.12082 5.98241 2.49077C3.91604 3.86072 2.30549 5.80788 1.35444 8.08602C0.403394 10.3642 0.154556 12.871 0.639396 15.2894C1.12424 17.7079 2.32098 19.9294 4.07829 21.673C5.8356 23.4166 8.07454 24.604 10.512 25.0851C12.9495 25.5662 15.476 25.3193 17.772 24.3756C20.068 23.432 22.0305 21.834 23.4112 19.7837C24.7919 17.7335 25.5288 15.323 25.5288 12.8571C25.5288 11.2199 25.2038 9.59865 24.5724 8.08602C23.9409 6.57339 23.0153 5.19898 21.8485 4.04127C20.6817 2.88355 19.2965 1.9652 17.772 1.33864C16.2475 0.712093 14.6135 0.38961 12.9634 0.38961ZM12.9634 22.8312C10.9752 22.8312 9.03171 22.2462 7.37861 21.1502C5.72551 20.0543 4.43707 18.4965 3.67623 16.674C2.91539 14.8515 2.71632 12.8461 3.1042 10.9113C3.49207 8.97653 4.44946 7.19933 5.85531 5.80444C7.26116 4.40955 9.05232 3.45961 11.0023 3.07476C12.9522 2.68991 14.9734 2.88743 16.8103 3.64234C18.6471 4.39725 20.2171 5.67565 21.3216 7.31587C22.4262 8.95609 23.0158 10.8845 23.0158 12.8571C23.0158 15.5024 21.9567 18.0393 20.0715 19.9098C18.1863 21.7803 15.6294 22.8312 12.9634 22.8312Z" fill="#000"/>
</svg>
