<?xml version="1.0" encoding="UTF-8"?>
<svg width="24px" height="24px" viewBox="0 0 24 24" version="1.1" xmlns="http://www.w3.org/2000/svg" xmlns:xlink="http://www.w3.org/1999/xlink">
    <defs>
        <path fill="#000" d="M12,2 C17.5228475,2 22,6.4771525 22,12 C22,17.5228475 17.5228475,22 12,22 C6.4771525,22 2,17.5228475 2,12 C2,6.4771525 6.4771525,2 12,2 Z M15.3700971,8.62990293 C15.015075,8.27488084 14.4394705,8.27488084 14.0844484,8.62990293 L14.0844484,8.62990293 L11.9996364,10.7136364 L9.91555162,8.62990293 L9.82245593,8.5485437 C9.46612727,8.27734627 8.95533984,8.30446602 8.62990293,8.62990293 L8.62990293,8.62990293 L8.5485437,8.72299861 C8.27734627,9.07932727 8.30446602,9.59011471 8.62990293,9.91555162 L8.62990293,9.91555162 L10.7136364,11.9996364 L8.62990293,14.0844484 L8.5485437,14.1775441 C8.27734627,14.5338727 8.30446602,15.0446602 8.62990293,15.3700971 L8.62990293,15.3700971 L8.72299861,15.4514563 C9.07932727,15.7226537 9.59011471,15.695534 9.91555162,15.3700971 L9.91555162,15.3700971 L11.9996364,13.2846364 L14.0844484,15.3700971 L14.1775441,15.4514563 C14.5338727,15.7226537 15.0446602,15.695534 15.3700971,15.3700971 L15.3700971,15.3700971 L15.4514563,15.2770014 C15.7226537,14.9206727 15.695534,14.4098853 15.3700971,14.0844484 L15.3700971,14.0844484 L13.2846364,11.9996364 L15.3700971,9.91555162 L15.4514563,9.82245593 C15.7226537,9.46612727 15.695534,8.95533984 15.3700971,8.62990293 Z" id="path-1"></path>
    </defs>
    <g stroke="none" stroke-width="1" fill="none" fill-rule="evenodd">
        <mask id="mask-2" fill="white">
            <use xlink:href="#path-1"></use>
        </mask>
        <use id="Combined-Shape" fill-rule="nonzero" xlink:href="#path-1"></use>
        <g mask="url(#mask-2)">
            <g>
                <rect id="Color/Black" x="0" y="0" width="24" height="24"></rect>
            </g>
        </g>
    </g>
</svg>
