<?xml version="1.0" encoding="UTF-8"?>
<svg width="20px" height="21px" viewBox="0 0 20 21" version="1.1" xmlns="http://www.w3.org/2000/svg"
    xmlns:xlink="http://www.w3.org/1999/xlink">
    <g id="Page-1" stroke="none" stroke-width="1" fill="none" fill-rule="evenodd">
        <g id="dashboard" transform="translate(0.000000, 0.991885)" fill="#000">
            <path
                d="M9,3.00811508 C9.55228475,3.00811508 10,3.45583033 10,4.00811508 C10,4.56039983 9.55228475,5.00811508 9,5.00811508 L9,5.00811508 L3,5.00811508 C2.44771525,5.00811508 2,5.45583033 2,6.00811508 L2,6.00811508 L2,17.0081151 C2,17.5603998 2.44771525,18.0081151 3,18.0081151 L3,18.0081151 L14,18.0081151 C14.5522847,18.0081151 15,17.5603998 15,17.0081151 L15,17.0081151 L15,11.0081151 C15,10.4558303 15.4477153,10.0081151 16,10.0081151 C16.5522847,10.0081151 17,10.4558303 17,11.0081151 L17,11.0081151 L17,17.0081151 C17,18.6649693 15.6568542,20.0081151 14,20.0081151 L14,20.0081151 L3,20.0081151 C1.34314575,20.0081151 0,18.6649693 0,17.0081151 L0,17.0081151 L0,6.00811508 C0,4.35126083 1.34314575,3.00811508 3,3.00811508 L3,3.00811508 Z M20,-2.22044605e-16 L20,0.998115079 L18,3.42211508 L8.707,12.7151151 C8.31462111,13.0940873 7.69091522,13.0886675 7.30518142,12.7029337 C6.94911946,12.3468717 6.91711199,11.7880406 7.21236655,11.3955568 L7.293,11.3011151 L16.584,2.01 L13.0018925,2.01083818 C12.4496077,2.01083818 12.0018925,1.56312293 12.0018925,1.01083818 C12.0018925,0.458553429 12.4496077,0.0108381793 13.0018925,0.0108381793 L18.3908739,5.30449018e-10 L20,-2.22044605e-16 Z M20,1.00811508 L20,7.00811508 C20,7.56039983 19.5522847,8.00811508 19,8.00811508 C18.4477153,8.00811508 18,7.56039983 18,7.00811508 L18,7.00811508 L18,3.42211508 L20,1.00811508 Z"
                id="Shape"></path>
        </g>
    </g>
</svg>
