<svg width="20" height="21" viewBox="0 0 20 21" fill="none" xmlns="http://www.w3.org/2000/svg">
  <path
    d="M19.42 15.62C19.3724 15.4972 19.301 15.3851 19.21 15.29L16.21 12.29C16.0217 12.1017 15.7663 11.9959 15.5 11.9959C15.2337 11.9959 14.9783 12.1017 14.79 12.29C14.6017 12.4783 14.4959 12.7337 14.4959 13C14.4959 13.2663 14.6017 13.5217 14.79 13.71L16.09 15H1.5C1.23478 15 0.98043 15.1054 0.792893 15.2929C0.605357 15.4804 0.5 15.7348 0.5 16C0.5 16.2652 0.605357 16.5196 0.792893 16.7071C0.98043 16.8946 1.23478 17 1.5 17H16.09L14.79 18.29C14.6963 18.383 14.6219 18.4936 14.5711 18.6154C14.5203 18.7373 14.4942 18.868 14.4942 19C14.4942 19.132 14.5203 19.2627 14.5711 19.3846C14.6219 19.5064 14.6963 19.617 14.79 19.71C14.883 19.8037 14.9936 19.8781 15.1154 19.9289C15.2373 19.9797 15.368 20.0058 15.5 20.0058C15.632 20.0058 15.7627 19.9797 15.8846 19.9289C16.0064 19.8781 16.117 19.8037 16.21 19.71L19.21 16.71C19.301 16.6149 19.3724 16.5028 19.42 16.38C19.52 16.1365 19.52 15.8635 19.42 15.62ZM6.5 8V12C6.5 12.2652 6.60536 12.5196 6.79289 12.7071C6.98043 12.8946 7.23478 13 7.5 13C7.76522 13 8.01957 12.8946 8.20711 12.7071C8.39464 12.5196 8.5 12.2652 8.5 12V2H10.5V12C10.5 12.2652 10.6054 12.5196 10.7929 12.7071C10.9804 12.8946 11.2348 13 11.5 13C11.7652 13 12.0196 12.8946 12.2071 12.7071C12.3946 12.5196 12.5 12.2652 12.5 12V2H13.5C13.7652 2 14.0196 1.89464 14.2071 1.70711C14.3946 1.51957 14.5 1.26522 14.5 1C14.5 0.734784 14.3946 0.48043 14.2071 0.292893C14.0196 0.105357 13.7652 0 13.5 0H6.5C5.43913 0 4.42172 0.421427 3.67157 1.17157C2.92143 1.92172 2.5 2.93913 2.5 4C2.5 5.06087 2.92143 6.07828 3.67157 6.82843C4.42172 7.57857 5.43913 8 6.5 8ZM6.5 2V6C5.96957 6 5.46086 5.78929 5.08579 5.41421C4.71071 5.03914 4.5 4.53043 4.5 4C4.5 3.46957 4.71071 2.96086 5.08579 2.58579C5.46086 2.21071 5.96957 2 6.5 2Z"
    fill="#000" />
</svg>
