<svg width="21" height="21" viewBox="0 0 21 21" fill="none" xmlns="http://www.w3.org/2000/svg">
<path fill-rule="evenodd" clip-rule="evenodd" d="M3.01839 12.1667C3.47863 12.1667 3.85173 12.5398 3.85173 13V16.3333C3.85173 16.5543 3.93952 16.7663 4.0958 16.9226C4.25208 17.0789 4.46405 17.1667 4.68506 17.1667H16.3517C16.5727 17.1667 16.7847 17.0789 16.941 16.9226C17.0973 16.7663 17.1851 16.5543 17.1851 16.3333V13C17.1851 12.5398 17.5582 12.1667 18.0184 12.1667C18.4786 12.1667 18.8517 12.5398 18.8517 13V16.3333C18.8517 16.9964 18.5883 17.6322 18.1195 18.1011C17.6507 18.5699 17.0148 18.8333 16.3517 18.8333H4.68506C4.02202 18.8333 3.38613 18.5699 2.91729 18.1011C2.44845 17.6322 2.18506 16.9964 2.18506 16.3333V13C2.18506 12.5398 2.55815 12.1667 3.01839 12.1667Z" fill="#00A693"/>
<path fill-rule="evenodd" clip-rule="evenodd" d="M5.76263 8.24408C6.08807 7.91864 6.61571 7.91864 6.94114 8.24408L10.5186 11.8215L14.096 8.24408C14.4214 7.91864 14.949 7.91864 15.2745 8.24408C15.5999 8.56951 15.5999 9.09715 15.2745 9.42259L11.1078 13.5893C10.7824 13.9147 10.2547 13.9147 9.9293 13.5893L5.76263 9.42259C5.4372 9.09715 5.4372 8.56951 5.76263 8.24408Z" fill="#00A693"/>
<path fill-rule="evenodd" clip-rule="evenodd" d="M10.5184 2.16666C10.9786 2.16666 11.3517 2.53975 11.3517 2.99999V13C11.3517 13.4602 10.9786 13.8333 10.5184 13.8333C10.0582 13.8333 9.68506 13.4602 9.68506 13V2.99999C9.68506 2.53975 10.0582 2.16666 10.5184 2.16666Z" fill="#00A693"/>
</svg>
