<svg width="24px" height="24px" viewBox="0 0 24 24" version="1.1" xmlns="http://www.w3.org/2000/svg" xmlns:xlink="http://www.w3.org/1999/xlink">
  <g id="icon/facebook-fill" stroke="none" stroke-width="1" fill="none" fill-rule="evenodd">
    <path fill="#000" d="M9,7 C9,3.6862915 11.6862915,1 15,1 L18,1 C18.5522847,1 19,1.44771525 19,2 L19,6 C19,6.55228475 18.5522847,7 18,7 L15,7 L15,9 L18,9 C18.6505712,9 19.1279292,9.6113889 18.9701425,10.2425356 L17.9701425,14.2425356 C17.8588507,14.6877026 17.4588676,15 17,15 L15,15 L15,22 C15,22.5522847 14.5522847,23 14,23 L10,23 C9.44771525,23 9,22.5522847 9,22 L9,15 L7,15 C6.44771525,15 6,14.5522847 6,14 L6,10 C6,9.44771525 6.44771525,9 7,9 L9,9 L9,7 Z" id="path-1"></path>
  </g>
</svg>
