<svg xmlns="http://www.w3.org/2000/svg" xmlns:xlink="http://www.w3.org/1999/xlink" viewBox="0 0 24 24">
  <g id="icon/facebook" stroke="none" stroke-width="1" fill="none" fill-rule="evenodd">
    <path fill="#000" d="M9 7a6 6 0 016-6h3a1 1 0 011 1v4a1 1 0 01-1 1h-3v2h3a1 1 0 01.97 1.243l-1 4A1 1 0 0117 15h-2v7a1 1 0 01-1 1h-4a1 1 0 01-1-1v-7H7a1 1 0 01-1-1v-4a1 1 0 011-1h2V7zm8-4h-2a4 4 0 00-4 4v3a1 1 0 01-1 1H8v2h2a1 1 0 011 1v7h2v-7a1 1 0 011-1h2.22l.5-2H14a1 1 0 01-1-1V7a2 2 0 012-2h2V3z" id="path-1"/>
  </g>
</svg>
