<svg width="20" height="12" viewBox="0 0 20 12" fill="none" xmlns="http://www.w3.org/2000/svg">
  <path
    d="M19.1668 9.55743V8.673C19.1668 7.45185 18.1668 6.46191 16.9333 6.46191H13.0559C11.8224 6.46191 14.9873 7.08535 14.9861 9.03481L14.986 9.55743C14.986 9.80166 15.186 9.99965 15.4327 9.99965C15.6794 9.99965 18.4734 9.99965 18.7201 9.99965C18.9668 9.99965 19.1668 9.80166 19.1668 9.55743Z"
    fill="#000" />
  <path
    d="M0.83325 9.55743V8.673C0.83325 7.45185 1.83319 6.46191 3.06667 6.46191H6.64014C8.47054 6.46191 5.01457 7.08535 5.01396 9.03481L5.01398 9.55743C5.01398 9.80166 4.814 9.99965 4.5673 9.99965C4.3206 9.99965 1.52663 9.99965 1.27993 9.99965C1.03324 9.99965 0.83325 9.80166 0.83325 9.55743Z"
    fill="#000" />
  <path
    d="M15.1476 5.49671C13.9931 5.49671 13.0571 4.48878 13.0571 3.24543C13.0571 2.00208 13.9931 0.994141 15.1476 0.994141C16.3021 0.994141 17.2381 2.00208 17.2381 3.24543C17.2381 4.48878 16.3021 5.49671 15.1476 5.49671Z"
    fill="#000" />
  <path
    d="M4.85923 5.49671C6.01377 5.49671 6.94971 4.48878 6.94971 3.24543C6.94971 2.00208 6.01377 0.994141 4.85923 0.994141C3.70469 0.994141 2.76875 2.00208 2.76875 3.24543C2.76875 4.48878 3.70469 5.49671 4.85923 5.49671Z"
    fill="#000" />
  <path
    d="M15.1484 4.53188C15.9477 4.53188 16.5957 3.95592 16.5957 3.24543C16.5957 2.53495 15.9477 1.95898 15.1484 1.95898C14.3491 1.95898 13.7012 2.53495 13.7012 3.24543C13.7012 3.95592 14.3491 4.53188 15.1484 4.53188Z"
    fill="#000" />
  <path
    d="M4.85401 4.53188C4.05472 4.53188 3.40676 3.95592 3.40676 3.24543C3.40676 2.53495 4.05472 1.95898 4.85401 1.95898C5.65331 1.95898 6.30127 2.53495 6.30127 3.24543C6.30127 3.95592 5.65331 4.53188 4.85401 4.53188Z"
    fill="#000" />
  <path
    d="M14.3442 10.8037V9.83885C14.3442 8.50669 13.2642 7.42676 11.9321 7.42676H8.07274C6.74058 7.42676 5.66064 8.50669 5.66064 9.83885V10.8037C5.66064 11.0701 5.87663 11.2861 6.14306 11.2861C6.4095 11.2861 13.5953 11.2861 13.8618 11.2861C14.1282 11.2861 14.3442 11.0701 14.3442 10.8037Z"
    fill="#000" />
  <path
    d="M10.0024 6.46188C8.67026 6.46188 7.59033 5.38195 7.59033 4.04979C7.59033 2.71763 8.67026 1.6377 10.0024 1.6377C11.3346 1.6377 12.4145 2.71763 12.4145 4.04979C12.4145 5.38195 11.3346 6.46188 10.0024 6.46188Z"
    fill="#000" />
  <path
    d="M10.001 5.49705C10.8003 5.49705 11.4482 4.84909 11.4482 4.04979C11.4482 3.2505 10.8003 2.60254 10.001 2.60254C9.20167 2.60254 8.55371 3.2505 8.55371 4.04979C8.55371 4.84909 9.20167 5.49705 10.001 5.49705Z"
    fill="#000" />
</svg>
