<svg xmlns="http://www.w3.org/2000/svg" xmlns:xlink="http://www.w3.org/1999/xlink" viewBox="0 0 24 24">
  <g id="icon/https" stroke="none" stroke-width="1" fill="none" fill-rule="evenodd">
    <path fill="#000" d="M20.033 2C21.67 2 23 3.42 23 5.166v13.668C23 20.58 21.67 22 20.033 22H3.967C2.33 22 1 20.58 1 18.834V5.166C1 3.42 2.33 2 3.967 2Zm-.587 2H4.554C3.697 4 3 4.745 3 5.66v12.68c0 .915.697 1.66 1.554 1.66h14.892c.857 0 1.554-.745 1.554-1.66V5.66C21 4.745 20.303 4 19.446 4Zm-1.441 12.5c.663 0 .995.25.995.75s-.332.75-.995.75H5.999C5.333 18 5 17.75 5 17.25s.333-.75.999-.75Zm-6.5-7c.093 0 .164.045.213.136.049.091.073.198.073.322a.68.68 0 0 1-.076.336.248.248 0 0 1-.147.128l-.063.008h-.84v3.74a.272.272 0 0 1-.14.244.627.627 0 0 1-.335.086.627.627 0 0 1-.335-.086.275.275 0 0 1-.13-.17l-.01-.075V10.43h-.84c-.089 0-.159-.045-.21-.136a.68.68 0 0 1-.076-.336c0-.123.025-.23.073-.322a.24.24 0 0 1 .148-.127l.065-.009h2.63Zm3.68 0c.094 0 .165.045.214.136.048.091.073.198.073.322a.68.68 0 0 1-.077.336.248.248 0 0 1-.146.128l-.064.008h-.84v3.74a.272.272 0 0 1-.14.244.627.627 0 0 1-.334.086.627.627 0 0 1-.335-.086.275.275 0 0 1-.131-.17l-.009-.075V10.43h-.84c-.09 0-.16-.045-.21-.136a.68.68 0 0 1-.076-.336c0-.123.024-.23.073-.322a.24.24 0 0 1 .147-.127l.066-.009h2.63Zm-7.55 0c.13 0 .242.027.335.082.07.041.114.096.132.166l.008.073v4.35a.27.27 0 0 1-.14.243.63.63 0 0 1-.335.086.629.629 0 0 1-.334-.086.273.273 0 0 1-.132-.168l-.008-.074v-1.854H5.95v1.854a.27.27 0 0 1-.14.242.63.63 0 0 1-.335.086.629.629 0 0 1-.335-.086.273.273 0 0 1-.131-.168L5 14.172v-4.35c0-.105.047-.185.14-.24a.65.65 0 0 1 .335-.082c.13 0 .241.027.335.082.07.041.113.096.13.166l.01.073v1.676h1.21V9.821c0-.104.047-.184.14-.239a.65.65 0 0 1 .336-.082Zm9.929 0c.434 0 .782.126 1.044.38.228.221.357.553.386.996l.006.197v.034c0 .543-.137.943-.41 1.2-.24.226-.548.353-.923.381l-.164.006H16.9v1.478a.27.27 0 0 1-.14.242.63.63 0 0 1-.335.086.629.629 0 0 1-.334-.086.273.273 0 0 1-.132-.168l-.008-.074v-4.35a.327.327 0 0 1 .278-.315l.075-.007h1.26Zm-.061.93H16.9v1.443h.603c.332 0 .513-.188.543-.565l.005-.119v-.075c0-.456-.183-.684-.548-.684ZM5.75 5.5l.074.004a.717.717 0 0 1 .28.085.74.74 0 0 1 .27.245.804.804 0 0 1 .111.27l.006.036.005.036.004.074a.708.708 0 0 1-.033.218.877.877 0 0 1-.056.135.715.715 0 0 1-.245.27.705.705 0 0 1-.198.095.88.88 0 0 1-.144.029.907.907 0 0 1-.148 0 .908.908 0 0 1-.144-.03.781.781 0 0 1-.313-.187.632.632 0 0 1-.093-.114.603.603 0 0 1-.069-.129.718.718 0 0 1-.054-.213l-.002-.037v-.074l.002-.037a.725.725 0 0 1 .085-.28.68.68 0 0 1 .082-.121.724.724 0 0 1 .362-.242.885.885 0 0 1 .144-.03L5.75 5.5Zm2.53.22a.756.756 0 0 1 .205.384l.007.036.004.036.004.074a.708.708 0 0 1-.033.218.877.877 0 0 1-.056.135.715.715 0 0 1-.13.177.753.753 0 0 1-1.111-.054.728.728 0 0 1-.113-.189.718.718 0 0 1-.054-.213l-.002-.037v-.074l.002-.037a.725.725 0 0 1 .085-.28.691.691 0 0 1 .082-.121.724.724 0 0 1 .362-.242.885.885 0 0 1 .144-.03.754.754 0 0 1 .604.217Zm1.47-.22.074.004a.717.717 0 0 1 .28.085.74.74 0 0 1 .27.245.804.804 0 0 1 .111.27l.006.036.005.036.004.074a.708.708 0 0 1-.033.218.877.877 0 0 1-.056.135.715.715 0 0 1-.245.27.705.705 0 0 1-.198.095.93.93 0 0 1-.144.029.918.918 0 0 1-.148 0 .913.913 0 0 1-.144-.03.781.781 0 0 1-.313-.187.632.632 0 0 1-.093-.114.715.715 0 0 1-.112-.27.71.71 0 0 1-.01-.072L9 6.287v-.074l.002-.037a.725.725 0 0 1 .085-.28.81.81 0 0 1 .186-.226.713.713 0 0 1 .189-.112.66.66 0 0 1 .14-.043.715.715 0 0 1 .073-.011L9.75 5.5Z" id="path-1"/>
  </g>
</svg>
