<svg xmlns="http://www.w3.org/2000/svg" xmlns:xlink="http://www.w3.org/1999/xlink" viewBox="0 0 24 24">
  <g id="icon/https-fill" stroke="none" stroke-width="1" fill="none" fill-rule="evenodd">
    <path fill="#000" d="M20.033 2C21.67 2 23 3.42 23 5.166v13.668C23 20.58 21.67 22 20.033 22H3.967C2.33 22 1 20.58 1 18.834V5.166C1 3.42 2.33 2 3.967 2Zm-2.028 14.5H5.999c-.666 0-.999.25-.999.75s.333.75.999.75h12.006c.663 0 .995-.25.995-.75s-.332-.75-.995-.75Zm-6.5-7h-2.63l-.065.009a.24.24 0 0 0-.148.127.673.673 0 0 0-.073.322.68.68 0 0 0 .076.336c.051.09.121.136.21.136h.84v3.74l.01.074c.017.07.06.127.13.17a.627.627 0 0 0 .335.086c.13 0 .241-.029.335-.086a.272.272 0 0 0 .14-.245V10.43h.84l.063-.008a.248.248 0 0 0 .147-.128.68.68 0 0 0 .076-.336.672.672 0 0 0-.073-.322c-.049-.09-.12-.136-.213-.136Zm3.68 0h-2.629l-.066.009a.24.24 0 0 0-.147.127.673.673 0 0 0-.073.322.68.68 0 0 0 .076.336c.05.09.12.136.21.136h.84v3.74l.009.074c.017.07.061.127.131.17a.627.627 0 0 0 .335.086c.13 0 .241-.029.334-.086a.272.272 0 0 0 .14-.245V10.43h.84l.064-.008a.248.248 0 0 0 .146-.128.68.68 0 0 0 .077-.336.672.672 0 0 0-.073-.322c-.05-.09-.12-.136-.213-.136Zm-7.55 0a.65.65 0 0 0-.334.082.262.262 0 0 0-.14.24v1.675H5.95V9.821l-.01-.073a.264.264 0 0 0-.13-.166.651.651 0 0 0-.335-.082.65.65 0 0 0-.335.082.262.262 0 0 0-.14.24v4.35l.009.074c.017.07.061.126.131.168a.629.629 0 0 0 .335.086.63.63 0 0 0 .335-.086.27.27 0 0 0 .14-.242v-1.854h1.21v1.854l.01.074c.017.07.06.126.13.168a.629.629 0 0 0 .335.086.63.63 0 0 0 .335-.086.27.27 0 0 0 .14-.242v-4.35l-.008-.074a.264.264 0 0 0-.132-.166.651.651 0 0 0-.334-.082Zm9.929 0h-1.26l-.076.006a.327.327 0 0 0-.277.315v4.35l.008.075c.018.07.062.126.132.168a.629.629 0 0 0 .334.086.63.63 0 0 0 .335-.086.27.27 0 0 0 .14-.242v-1.478h.603l.164-.006c.375-.028.683-.155.922-.38.274-.258.411-.658.411-1.2v-.035l-.006-.197c-.029-.443-.158-.775-.386-.996-.262-.254-.61-.38-1.044-.38Zm-.061.93c.365 0 .548.228.548.684v.075l-.005.12c-.03.376-.211.564-.543.564H16.9V10.43ZM5.75 5.5l-.074.004a.726.726 0 0 0-.28.085.774.774 0 0 0-.308.308.673.673 0 0 0-.056.135.88.88 0 0 0-.029.144l-.002.037v.074l.002.037a.714.714 0 0 0 .054.213.622.622 0 0 0 .07.13.728.728 0 0 0 .405.3A.84.84 0 0 0 5.75 7a.907.907 0 0 0 .147-.014.88.88 0 0 0 .14-.043.784.784 0 0 0 .243-.163.65.65 0 0 0 .094-.114.715.715 0 0 0 .093-.198.565.565 0 0 0 .029-.144.708.708 0 0 0 .004-.074l-.004-.074-.005-.036-.006-.036a.611.611 0 0 0-.042-.14.816.816 0 0 0-.113-.19.767.767 0 0 0-.227-.185.685.685 0 0 0-.135-.056.834.834 0 0 0-.144-.03L5.75 5.5Zm2.037.001-.11.003a.726.726 0 0 0-.28.085.774.774 0 0 0-.309.308.673.673 0 0 0-.056.135.88.88 0 0 0-.029.144l-.002.037v.074l.002.037a.71.71 0 0 0 .054.213.654.654 0 0 0 .07.13.728.728 0 0 0 .405.3A.84.84 0 0 0 7.75 7a.753.753 0 0 0 .75-.75l-.004-.074-.004-.036-.007-.036a.611.611 0 0 0-.042-.14.816.816 0 0 0-.113-.19.754.754 0 0 0-.654-.271ZM9.75 5.5l-.074.004a.715.715 0 0 0-.213.054.68.68 0 0 0-.189.112.839.839 0 0 0-.104.105.738.738 0 0 0-.156.329.725.725 0 0 0-.01.072L9 6.213v.074l.002.037a.71.71 0 0 0 .054.213.654.654 0 0 0 .07.13.728.728 0 0 0 .405.3.88.88 0 0 0 .144.03.917.917 0 0 0 .148 0 .893.893 0 0 0 .144-.03.793.793 0 0 0 .258-.137.845.845 0 0 0 .148-.164.715.715 0 0 0 .093-.198.565.565 0 0 0 .029-.144.708.708 0 0 0 .004-.074l-.004-.074-.005-.036-.006-.036a.611.611 0 0 0-.042-.14.816.816 0 0 0-.113-.19.767.767 0 0 0-.227-.185.685.685 0 0 0-.135-.056.885.885 0 0 0-.144-.03L9.75 5.5Z" id="path-1"/>
  </g>
</svg>
