<svg width="24px" height="24px" viewBox="0 0 24 24" version="1.1" xmlns="http://www.w3.org/2000/svg" xmlns:xlink="http://www.w3.org/1999/xlink">
    <g id="icon/instagram-fill" stroke="none" stroke-width="1" fill="none" fill-rule="evenodd">
        <path fill="currentColor" d="M17,1 C20.3137085,1 23,3.6862915 23,7 L23,17 C23,20.3137085 20.3137085,23 17,23 L7,23 C3.6862915,23 1,20.3137085 1,17 L1,7 C1,3.6862915 3.6862915,1 7,1 L17,1 Z M12.7766835,7.01081652 C10.642969,6.69441347 8.54687783,7.78203422 7.57709117,9.70878336 C6.60730452,11.6355325 6.98247016,13.9670058 8.50773217,15.4922678 C10.0329942,17.0175298 12.3644675,17.3926955 14.2912166,16.4229088 C16.2179658,15.4531222 17.3055865,13.357031 16.9891835,11.2233165 C16.6661065,9.04459556 14.9554044,7.33389346 12.7766835,7.01081652 Z M9.36356114,10.6079636 C9.94543313,9.4519141 11.2030878,8.79934165 12.4833165,8.98918348 C13.7905491,9.18302964 14.8169704,10.2094509 15.0108165,11.5166835 C15.2006583,12.7969122 14.5480859,14.0545669 13.3920364,14.6364389 C12.2359869,15.2183109 10.8371029,14.9932115 9.92194574,14.0780543 C9.00678853,13.1628971 8.78168914,11.7640131 9.36356114,10.6079636 Z" id="path-1"></path>
    </g>
</svg>
