<?xml version="1.0" encoding="UTF-8"?>
<svg width="24px" height="24px" viewBox="0 0 24 24" version="1.1" xmlns="http://www.w3.org/2000/svg" xmlns:xlink="http://www.w3.org/1999/xlink">
    <g id="icon/linkedin-fill" stroke="none" stroke-width="1" fill="none" fill-rule="evenodd">
        <path fill="currentColor" d="M20.421875,1 C21.8435364,1 23,2.1564636 23,3.578125 L23,3.578125 L23,20.421875 C23,21.8435364 21.8435364,23 20.421875,23 L20.421875,23 L3.578125,23 C2.1564636,23 1,21.8435364 1,20.421875 L1,20.421875 L1,3.578125 C1,2.1564636 2.1564636,1 3.578125,1 L3.578125,1 Z M7.87533567,9.46484375 L4.86752317,9.46484375 L4.86752317,19.1757812 L7.87533567,19.1757812 L7.87533567,9.46484375 Z M15.5368652,9.29296875 C14.0735779,9.29296875 13.0913391,10.0247803 12.6875,10.7857971 L12.6875,10.7857971 L12.6875,9.46484375 L9.765625,9.46484375 L9.765625,19.1757812 L12.6875,19.1757812 L12.6875,14.3542175 L12.6889789,14.2087625 C12.714065,12.9992191 13.0691253,11.8682404 14.5740967,11.8682404 C16.0607707,11.8682404 16.1622145,13.2072442 16.1676896,14.3085224 L16.1676896,14.3085224 L16.1679687,19.1757812 L19.1328125,19.1757812 L19.1328125,13.8332214 L19.131633,13.6288413 C19.1021005,11.1259743 18.5019696,9.29296875 15.5368652,9.29296875 Z M6.41473389,4.609375 C5.43920898,4.609375 4.65234375,5.39859011 4.65234375,6.37092591 C4.65234375,7.34359739 5.43920898,8.1328125 6.41473389,8.1328125 C7.38656614,8.1328125 8.17544558,7.34359739 8.17544558,6.37092591 C8.17544558,5.39859011 7.38656614,4.609375 6.41473389,4.609375 Z" id="path-1"></path>
    </g>
</svg>
