<svg xmlns="http://www.w3.org/2000/svg"  viewBox="0 0 110 36">
    <g fill="none" fill-rule="evenodd">
        <g>
            <g transform="translate(-214.000000, -1151.000000) translate(214.000000, 1151.000000)">
                <path fill="#738297" d="M10.572 0c1.921 0 3.48 1.558 3.48 3.48 0 .526-.118 1.025-.327 1.472h6.08c.74 0 1.339.599 1.339 1.338v28.372c0 .739-.6 1.338-1.339 1.338H1.338C.6 36 0 35.4 0 34.662V6.29c0-.74.6-1.338 1.338-1.338h6.08c-.209-.447-.326-.946-.326-1.472C7.092 1.558 8.65 0 10.572 0zm8.698 5.62l-5.956.001c-.637.815-1.628 1.338-2.742 1.338s-2.106-.523-2.743-1.338H1.874c-.624 0-1.137.474-1.199 1.081l-.006.123v27.301c0 .624.474 1.137 1.081 1.199l.124.006H19.27c.624 0 1.137-.474 1.198-1.081l.006-.124v-27.3c0-.666-.539-1.205-1.204-1.205z"/>
                <ellipse cx="71.175" cy="3.48" fill="#04BFBF" rx="3.479" ry="3.48"/>
                <path fill="#1B62F8" d="M7.124 9.636L14.185 9.636 14.185 25.267 6.959 31.316z"/>
                <path fill="#000" d="M92.925 9.1v.005l6.816.003c.966 0 3.675.107 4.434.192 1.173.13 2.524.206 3.79 1.14.636.463 1.14 1.083 1.463 1.8.354.865.547 1.786.57 2.719v15.415l-4.777.005v-.003l-6.993-.003c-1.084-.01-3.54-.108-4.257-.188-1.173-.134-2.524-.21-3.79-1.14-.636-.465-1.14-1.086-1.463-1.803-.356-.861-.55-1.779-.576-2.708l-.002-.349V9.108l4.785-.008zm-12.001.008v2.775h2.165v3.615h-2.104v1.907c-.013.274-.254 5.639.017 7.322.104.68.294 1.343.563 1.976 1.066 2.461 5.76 2.522 5.76 2.522v1.142s-4.948.092-7.162-.566c-3.053-.751-3.782-3.195-3.921-4.768-.022-.242-.022-1.033-.015-1.876l.004-.424c.011-1.06.03-2.073.03-2.073V9.108h4.663zm-51.162.041v21.22h-4.47V9.15h4.47zm5.346 11.42l8.128 9.8h-4.531l-8.09-9.8h4.493zM73.386 9.15v21.22h-4.47V9.15h4.47zm-23.258 0v.505c2.262-.32 4.543-.489 6.828-.505 3.927.041 5.521.403 6.677 1.035 1.278.698 1.798 1.405 2.103 2.187.096.248.177.5.243.758.022.076.066.26.103.435.036.175.09.588.1.73 0 .085.007.175.022.269.105 1.543.159 4.348.185 7.171l.006.678.005.674c.007 1.118.01 2.208.012 3.19v2.104c0 .529-.002.974-.003 1.306l-.001.258-.001.274v.14h-4.91v-.084c.006-.74.045-6.248.056-8.421.012-1.974.117-5.796-.527-7.878-.41-1.269-.717-3.68-7.272-3.75-1.214-.002-2.426.08-3.629.243v19.884l-4.48.017V9.15h4.483zm44.647.921h-.718c-.443.001-.806.004-1.036.006h-.097c-.012 1.113-.039 3.062-.043 5.242v.979l.002.663.004.668.007.67c.026 2.452.102 4.86.275 6.456.085.805.36 1.578.802 2.257.495.705 1.193 1.242 2.002 1.54.917.392 2.917.769 5.336.832.772.02 1.568.027 2.25.029h.53c.512-.001.917-.005 1.133-.007.011-1.112.039-3.062.042-5.242v-.98l-.001-.487-.006-.985c-.022-2.63-.095-5.275-.28-6.985-.086-.805-.361-1.578-.802-2.258-.495-.704-1.193-1.24-2.003-1.538-.917-.394-2.916-.77-5.336-.833-.702-.018-1.423-.025-2.06-.027zm-51.62-.923l-8.067 10.13h-4.472l8.047-10.13h4.493z"/>
                <path fill="#738297" d="M56.608 32.79c.231 0 .428.078.59.236l.078.085v-.27h.358v1.942l-.003.167c-.01.263-.045.455-.106.577-.072.146-.187.261-.345.346-.157.085-.351.127-.581.127-.273 0-.494-.06-.662-.181-.14-.1-.22-.243-.24-.429l-.004-.116.378.055.017.08c.022.074.06.13.114.17.097.07.228.106.395.106.18 0 .318-.036.416-.106.098-.07.164-.17.198-.296.02-.078.03-.241.028-.49-.17.197-.38.295-.634.295-.314 0-.558-.112-.73-.335-.173-.223-.26-.49-.26-.802 0-.214.04-.412.12-.593.078-.182.193-.322.343-.42.15-.1.327-.149.53-.149zm51.386-.04c.232 0 .429.08.59.237l.079.085v-.27h.358v1.942l-.003.167c-.01.263-.046.456-.106.577-.073.146-.188.262-.345.346-.157.085-.351.127-.581.127-.273 0-.494-.06-.662-.18-.14-.101-.22-.244-.24-.43l-.004-.116.378.055.017.08c.022.074.06.131.114.17.096.07.228.106.395.106.18 0 .318-.035.416-.106.098-.07.164-.17.198-.296.02-.078.03-.24.028-.489-.17.196-.38.294-.634.294-.314 0-.558-.111-.73-.334-.173-.223-.26-.49-.26-.802 0-.215.04-.413.12-.594.078-.181.193-.321.343-.42.15-.099.327-.148.53-.148zm-72.582.04c.315 0 .572.1.772.303.2.203.3.482.3.84 0 .288-.044.516-.133.682-.088.166-.217.294-.386.386-.169.092-.353.138-.553.138-.32 0-.58-.101-.777-.303-.198-.202-.297-.492-.297-.872 0-.416.118-.725.354-.925.197-.166.437-.25.72-.25zm12.575 0c.306 0 .556.102.75.306.167.176.262.412.285.71l.006.154v.06l-.002.041H47.32l.015.142c.03.179.096.32.198.426.128.13.287.196.479.196.142 0 .263-.036.364-.11.076-.055.14-.134.191-.239l.048-.112.401.049-.044.131c-.068.168-.17.303-.307.404-.171.127-.39.19-.655.19-.335 0-.601-.1-.797-.303-.196-.203-.295-.487-.295-.852 0-.378.1-.672.298-.88.198-.21.456-.314.772-.314zm39.063.05v1.247l.001.111c.003.139.01.236.023.29.024.101.076.18.155.237.08.057.177.086.293.086.117 0 .226-.03.328-.088.102-.059.174-.139.217-.24.042-.1.063-.247.063-.439V32.84h.389v2.248h-.348v-.33l-.08.1c-.168.187-.384.28-.646.28-.135 0-.262-.025-.379-.076-.117-.05-.204-.114-.26-.191-.057-.077-.097-.171-.12-.283-.016-.074-.024-.193-.024-.355V32.84h.388zm-16.404-.05c.18 0 .338.025.473.076.136.05.237.12.301.206.065.087.11.203.134.348l-.38.05-.019-.081c-.025-.077-.068-.14-.13-.189-.083-.065-.2-.097-.35-.097-.18 0-.306.029-.383.086-.076.058-.114.126-.114.204 0 .049.016.093.048.133.031.04.08.075.148.101.04.015.153.047.343.098.275.072.466.13.575.177.108.045.194.112.255.2.062.087.093.196.093.325 0 .127-.038.247-.113.36-.076.111-.184.198-.327.26-.142.06-.303.092-.483.092-.297 0-.524-.061-.68-.182-.156-.122-.256-.302-.299-.54l.384-.06.023.107c.031.1.083.18.157.24.099.081.236.121.413.121.178 0 .31-.035.397-.106.086-.072.13-.155.13-.251 0-.086-.039-.154-.115-.203-.053-.034-.186-.077-.397-.13-.284-.07-.482-.131-.592-.183-.11-.051-.193-.122-.25-.213-.057-.091-.085-.192-.085-.302 0-.1.023-.193.07-.278.047-.086.11-.157.19-.213.061-.044.144-.08.248-.111.104-.03.216-.046.335-.046zm-9.679 0c.307 0 .557.102.75.306.167.176.262.412.286.71l.006.154-.001.06-.001.041h-1.708l.015.142c.03.179.096.32.199.426.127.13.287.196.478.196.143 0 .264-.036.365-.11.075-.055.139-.134.19-.239l.049-.112.401.049-.044.131c-.068.168-.17.303-.307.404-.172.127-.39.19-.656.19-.335 0-.6-.1-.797-.303-.196-.203-.294-.487-.294-.852 0-.378.1-.672.298-.88.198-.21.455-.314.771-.314zm31.02 0c.25 0 .453.061.611.185.158.123.26.298.304.525l-.377.058-.032-.107c-.038-.099-.09-.177-.16-.234-.09-.076-.2-.114-.33-.114-.196 0-.354.068-.477.206-.122.138-.183.355-.183.653 0 .302.06.521.177.658.118.137.272.205.461.205.153 0 .28-.045.382-.137.102-.092.167-.233.194-.423l.382.048-.033.148c-.054.189-.15.342-.287.459-.172.146-.383.219-.633.219-.314 0-.566-.1-.756-.302-.19-.201-.286-.49-.286-.865 0-.242.041-.455.123-.637.082-.182.207-.318.374-.41.168-.09.35-.136.547-.136zm-8.935 0c.315 0 .572.1.772.303.2.203.3.482.3.84 0 .288-.044.516-.133.682-.088.166-.217.294-.386.386-.169.092-.353.138-.553.138-.32 0-.58-.101-.777-.303-.198-.202-.297-.492-.297-.872 0-.416.118-.725.354-.925.197-.166.437-.25.72-.25zm-29.733-.805v3.103h-.36v-.284l-.066.089c-.141.164-.333.246-.574.246-.183 0-.35-.05-.504-.149-.153-.098-.271-.236-.355-.413-.084-.177-.127-.38-.127-.61 0-.225.039-.429.115-.611.076-.183.19-.323.343-.42.152-.098.322-.147.51-.147.139 0 .262.029.37.086.071.038.134.084.188.137l.074.086v-1.113h.386zm26.203 0v.366h-1.046v2.737h-.418V32.35h-1.042v-.366h2.506zm-48.254.804c.138 0 .265.025.38.073.116.05.203.113.26.192.058.079.098.173.121.281.015.071.022.194.022.37v1.383h-.388V33.72l-.003-.11c-.006-.101-.02-.18-.043-.239-.03-.076-.083-.138-.16-.184-.077-.046-.167-.068-.27-.068-.166 0-.309.051-.429.154-.12.103-.18.298-.18.586v1.228h-.388V32.84h.35v.32l.076-.099c.162-.18.38-.272.652-.272zm72.53 0c.138 0 .265.025.381.073.116.05.202.113.26.192.057.079.098.173.12.281.015.071.022.194.022.37v1.383h-.388V33.72l-.003-.11c-.005-.101-.02-.18-.042-.239-.03-.076-.084-.138-.16-.184-.078-.046-.168-.068-.271-.068-.166 0-.308.051-.428.154-.12.103-.18.298-.18.586v1.228h-.389V32.84h.35v.32l.076-.099c.163-.18.38-.272.652-.272zm-7.916-.804v1.113l.095-.094c.164-.143.36-.215.59-.215.17 0 .318.033.443.099.125.065.214.156.268.272.054.115.081.283.081.503v1.425h-.388v-1.425l-.005-.108c-.013-.135-.054-.238-.121-.307-.084-.087-.203-.13-.357-.13-.115 0-.223.029-.324.087-.102.059-.174.138-.217.238-.043.1-.065.239-.065.415v1.23h-.388v-3.103h.388zm-70.172 0v1.539l1.57-1.539h.567l-1.326 1.257 1.384 1.846h-.552l-1.125-1.57-.518.495v1.075h-.418v-3.103h.418zm13.445.855l.365 1.298.136.482.004-.018.114-.445.365-1.317h.399l.343 1.304.114.43.131-.434.393-1.3h.377l-.716 2.248h-.403l-.364-1.346-.089-.383-.463 1.729h-.406l-.7-2.248h.4zm61.01 0v2.248h-.389V32.84h.388zm-32.3 0v2.248h-.388V32.84h.388zm-23.236-.855v3.103h-.388v-3.103h.388zm7.71 1.12c-.173 0-.317.069-.433.207-.116.138-.174.356-.174.654 0 .288.062.503.186.646.123.142.27.213.438.213.17 0 .313-.068.432-.204.119-.136.178-.344.178-.623 0-.308-.06-.533-.181-.677-.121-.144-.27-.216-.447-.216zm-16.927 0c-.194 0-.355.071-.483.213-.128.143-.192.358-.192.646 0 .288.064.503.192.647.128.143.29.214.483.214s.353-.072.481-.215c.128-.144.192-.364.192-.659 0-.278-.064-.488-.193-.631-.129-.144-.289-.215-.48-.215zm47.64 0c-.194 0-.355.071-.483.213-.128.143-.192.358-.192.646 0 .288.064.503.192.647.128.143.289.214.483.214.193 0 .353-.072.48-.215.129-.144.193-.364.193-.659 0-.278-.064-.488-.193-.631-.129-.144-.289-.215-.48-.215zm-26.416 0c-.173 0-.32.069-.44.206-.121.138-.181.342-.181.613 0 .295.06.51.179.645.119.136.268.203.448.203.178 0 .328-.067.449-.202.12-.134.18-.346.18-.634 0-.275-.061-.482-.186-.622-.124-.14-.274-.21-.45-.21zm51.387-.039c-.173 0-.32.069-.44.206-.121.138-.181.342-.181.613 0 .295.06.51.178.646.12.135.27.203.449.203.178 0 .328-.068.448-.202.121-.135.182-.346.182-.634 0-.275-.063-.483-.187-.622-.124-.14-.274-.21-.45-.21zm-47.051.037c-.178 0-.328.058-.45.175-.097.094-.16.213-.187.357l-.014.113h1.278c-.017-.189-.066-.33-.146-.425-.124-.147-.284-.22-.481-.22zm-12.98 0c-.179 0-.329.058-.45.175-.097.094-.16.213-.188.357l-.014.113h1.279c-.018-.189-.066-.33-.147-.425-.124-.147-.284-.22-.48-.22zm19.873-1.118v.438h-.388v-.438h.388zm32.3 0v.438h-.389v-.438h.388z"/>
            </g>
        </g>
    </g>
</svg>
