<svg width="21" height="21" viewBox="0 0 21 21" fill="none" xmlns="http://www.w3.org/2000/svg">
  <path
    d="M14.9251 15.5651V14.4722C14.9251 12.9634 13.7019 11.7402 12.1931 11.7402H7.82186C6.31301 11.7402 5.08984 12.9634 5.08984 14.4722V15.5651C5.08984 15.8668 5.33448 16.1115 5.63625 16.1115C5.93802 16.1115 14.0769 16.1115 14.3787 16.1115C14.6805 16.1115 14.9251 15.8668 14.9251 15.5651Z"
    fill="#000" />
  <path
    d="M10.0054 10.6476C8.4966 10.6476 7.27344 9.42445 7.27344 7.91561C7.27344 6.40676 8.4966 5.18359 10.0054 5.18359C11.5143 5.18359 12.7375 6.40676 12.7375 7.91561C12.7375 9.42445 11.5143 10.6476 10.0054 10.6476Z"
    fill="#000" />
  <path
    d="M10.0064 9.55478C10.9117 9.55478 11.6456 8.82088 11.6456 7.91557C11.6456 7.01027 10.9117 6.27637 10.0064 6.27637C9.10109 6.27637 8.36719 7.01027 8.36719 7.91557C8.36719 8.82088 9.10109 9.55478 10.0064 9.55478Z"
    fill="#000" />
</svg>
