<svg viewBox="0 0 12 14" xmlns="http://www.w3.org/2000/svg">
  <path fill="#000" fill-rule="evenodd" clip-rule="evenodd"
    d="M6 6.99992C4.15905 6.99992 2.66667 5.50753 2.66667 3.66658C2.66667 1.82564 4.15905 0.333252 6 0.333252C7.84095 0.333252 9.33333 1.82564 9.33333 3.66658C9.33333 5.50753 7.84095 6.99992 6 6.99992ZM12 11.6666C12 9.82564 10.5076 8.33325 8.66667 8.33325H3.33333C1.49238 8.33325 0 9.82564 0 11.6666V12.9999C0 13.3681 0.298477 13.6666 0.666667 13.6666H1.33333H11.3333C11.7015 13.6666 12 13.3681 12 12.9999V11.6666ZM1.33333 12.3333V11.6666C1.33333 10.562 2.22876 9.66658 3.33333 9.66658H8.66667C9.77124 9.66658 10.6667 10.562 10.6667 11.6666V12.3333H1.33333ZM8 3.66659C8 4.77115 7.10457 5.66658 6 5.66658C4.89543 5.66658 4 4.77115 4 3.66659C4 2.56202 4.89543 1.66659 6 1.66659C7.10457 1.66659 8 2.56202 8 3.66659Z" />
</svg>
