<svg xmlns="http://www.w3.org/2000/svg" xmlns:xlink="http://www.w3.org/1999/xlink" viewBox="0 0 24 24">
  <g id="icon/microsoft-teams-fill" stroke="none" stroke-width="1" fill="none" fill-rule="evenodd">
    <path fill="currentColor" d="M19.909 8.516c-.337 0-.653-.061-.946-.184a2.449 2.449 0 0 1-1.276-1.251 2.308 2.308 0 0 1-.187-.928 2.281 2.281 0 0 1 .704-1.661c.22-.216.473-.385.759-.507.293-.13.609-.19.946-.183.33-.008.642.053.935.183a2.415 2.415 0 0 1 1.287 1.251c.125.288.187.594.187.917 0 .331-.062.64-.187.928a2.398 2.398 0 0 1-1.287 1.251 2.406 2.406 0 0 1-.935.184M23 10.198v5.038c0 .453-.088.885-.264 1.295-.19.41-.436.766-.737 1.068-.315.309-.682.55-1.1.722-.433.18-.876.27-1.331.27-.279 0-.557-.04-.836-.119a2.502 2.502 0 0 1-.781-.27 5.18 5.18 0 0 1-.781 1.554 5.3 5.3 0 0 1-2.739 1.953 5.245 5.245 0 0 1-1.738.291 5.548 5.548 0 0 1-1.991-.356 5.59 5.59 0 0 1-1.65-1.014 5.23 5.23 0 0 1-1.199-1.467 5.32 5.32 0 0 1-.627-1.877H1.913a.92.92 0 0 1-.649-.27.844.844 0 0 1-.264-.625V7.394a.88.88 0 0 1 .264-.637.94.94 0 0 1 .649-.259H9.8a3.08 3.08 0 0 1-.066-2.589c.161-.36.389-.69.682-.992.293-.28.638-.503 1.034-.669A2.963 2.963 0 0 1 12.682 2c.447 0 .865.083 1.254.248.389.166.73.388 1.023.669.293.302.52.633.682.992.169.389.253.802.253 1.24 0 .432-.084.842-.253 1.23a2.946 2.946 0 0 1-.682.993 3.281 3.281 0 0 1-1.023.68 3.169 3.169 0 0 1-1.595.226A6.668 6.668 0 0 1 12 8.224v.971h9.966c.286 0 .532.097.737.292a.959.959 0 0 1 .297.711m-15.642-.161h2.068V8.354H3.574v1.683h2.068v5.393h1.716" id="path-1"/>
  </g>
</svg>
