<svg viewBox="0 0 16 16" fill="none" xmlns="http://www.w3.org/2000/svg">
  <path fill-rule="evenodd" clip-rule="evenodd"
    d="M10.4 4.66663H5.59997C5.26939 4.66663 5 4.41025 5 4.09554C5 3.98764 5.02999 3.88601 5.0924 3.78606C5.10316 3.76954 5.11514 3.75239 5.12832 3.73702L7.52841 0.881907C7.83801 0.582667 8.19682 0.619262 8.43676 0.845312L10.8716 3.73702C10.8848 3.75239 10.8968 3.76891 10.9076 3.78606C10.97 3.88601 11 3.98764 11 4.09554C11 4.41025 10.7306 4.66663 10.4 4.66663ZM10 7.99996C10 9.10457 9.10461 9.99996 8 9.99996C6.89551 9.99996 6 9.10457 6 7.99996C6 6.89547 6.89551 5.99996 8 5.99996C9.10461 5.99996 10 6.89547 10 7.99996ZM5.59997 11.3333C5.26939 11.3333 5 11.5899 5 11.9047C5 12.0127 5.02999 12.1145 5.0924 12.2144C5.10316 12.2316 5.11514 12.2482 5.12832 12.2636L7.56313 15.1573C7.68321 15.271 7.83801 15.3333 7.99995 15.3333C8.16199 15.3333 8.31679 15.271 8.47159 15.1213L10.8716 12.2641C10.8848 12.2487 10.8968 12.2316 10.9076 12.215C10.97 12.1145 11 12.0127 11 11.9047C11 11.5899 10.7306 11.3333 10.4 11.3333H5.59997Z"
    fill="#000" />
  <mask id="mask0_14880_8593" style="mask-type:alpha" maskUnits="userSpaceOnUse" x="5" y="0" width="6" height="16">
    <path fill-rule="evenodd" clip-rule="evenodd"
      d="M10.4 4.66663H5.59997C5.26939 4.66663 5 4.41025 5 4.09554C5 3.98764 5.02999 3.88601 5.0924 3.78606C5.10316 3.76954 5.11514 3.75239 5.12832 3.73702L7.52841 0.881907C7.83801 0.582667 8.19682 0.619262 8.43676 0.845312L10.8716 3.73702C10.8848 3.75239 10.8968 3.76891 10.9076 3.78606C10.97 3.88601 11 3.98764 11 4.09554C11 4.41025 10.7306 4.66663 10.4 4.66663ZM10 7.99996C10 9.10457 9.10461 9.99996 8 9.99996C6.89551 9.99996 6 9.10457 6 7.99996C6 6.89547 6.89551 5.99996 8 5.99996C9.10461 5.99996 10 6.89547 10 7.99996ZM5.59997 11.3333C5.26939 11.3333 5 11.5899 5 11.9047C5 12.0127 5.02999 12.1145 5.0924 12.2144C5.10316 12.2316 5.11514 12.2482 5.12832 12.2636L7.56313 15.1573C7.68321 15.271 7.83801 15.3333 7.99995 15.3333C8.16199 15.3333 8.31679 15.271 8.47159 15.1213L10.8716 12.2641C10.8848 12.2487 10.8968 12.2316 10.9076 12.215C10.97 12.1145 11 12.0127 11 11.9047C11 11.5899 10.7306 11.3333 10.4 11.3333H5.59997Z"
      fill="white" />
  </mask>
  <g mask="url(#mask0_14880_8593)">
    <rect width="16" height="16" fill="#000" />
  </g>
</svg>
