<svg width="20" height="20" viewBox="0 0 20 20" xmlns="http://www.w3.org/2000/svg">
  <path fill="#000" fill-rule="evenodd" clip-rule="evenodd"
    d="M3.33301 12.5C1.9523 12.5 0.833008 11.3807 0.833008 10C0.833008 8.61929 1.9523 7.5 3.33301 7.5C4.71372 7.5 5.83301 8.61929 5.83301 10C5.83301 11.3807 4.71372 12.5 3.33301 12.5ZM7.49967 10C7.49967 11.3807 8.61896 12.5 9.99967 12.5C11.3804 12.5 12.4997 11.3807 12.4997 10C12.4997 8.61929 11.3804 7.5 9.99967 7.5C8.61896 7.5 7.49967 8.61929 7.49967 10ZM14.1663 10C14.1663 11.3807 15.2856 12.5 16.6663 12.5C18.0471 12.5 19.1663 11.3807 19.1663 10C19.1663 8.61929 18.0471 7.5 16.6663 7.5C15.2856 7.5 14.1663 8.61929 14.1663 10ZM4.16634 10C4.16634 10.4602 3.79325 10.8333 3.33301 10.8333C2.87277 10.8333 2.49967 10.4602 2.49967 10C2.49967 9.53976 2.87277 9.16667 3.33301 9.16667C3.79325 9.16667 4.16634 9.53976 4.16634 10ZM16.6663 10.8333C17.1266 10.8333 17.4997 10.4602 17.4997 10C17.4997 9.53976 17.1266 9.16667 16.6663 9.16667C16.2061 9.16667 15.833 9.53976 15.833 10C15.833 10.4602 16.2061 10.8333 16.6663 10.8333ZM10.833 10C10.833 10.4602 10.4599 10.8333 9.99968 10.8333C9.53944 10.8333 9.16634 10.4602 9.16634 10C9.16634 9.53976 9.53944 9.16667 9.99968 9.16667C10.4599 9.16667 10.833 9.53976 10.833 10Z" />
</svg>
