<svg fill="none" xmlns="http://www.w3.org/2000/svg" viewBox="0 0 14 20">
  <path
    d="M12.833 4h-2.5V1c0-.265-.088-.52-.244-.707A.77.77 0 0 0 9.499 0a.77.77 0 0 0-.589.293A1.11 1.11 0 0 0 8.666 1v3H5.333V1c0-.265-.088-.52-.244-.707A.77.77 0 0 0 4.499 0a.77.77 0 0 0-.589.293A1.11 1.11 0 0 0 3.666 1v3h-2.5a.77.77 0 0 0-.589.293A1.11 1.11 0 0 0 .333 5c0 .265.088.52.244.707a.77.77 0 0 0 .59.293H2v5c-.001.132.02.262.062.384.041.122.102.233.18.326l2.258 2.7V19c0 .265.087.52.244.707a.77.77 0 0 0 .589.293.77.77 0 0 0 .59-.293A1.11 1.11 0 0 0 6.165 19v-4h1.667v4c0 .265.088.52.244.707a.77.77 0 0 0 .59.293.77.77 0 0 0 .589-.293A1.11 1.11 0 0 0 9.5 19v-4.59l2.258-2.7c.077-.093.138-.204.18-.326.041-.122.062-.252.062-.384V6h.833a.77.77 0 0 0 .59-.293A1.11 1.11 0 0 0 13.665 5c0-.265-.088-.52-.244-.707A.77.77 0 0 0 12.833 4Zm-2.5 6.59L8.325 13h-2.65l-2.009-2.41V6h6.667v4.59ZM6.166 11h1.667a.77.77 0 0 0 .59-.293A1.11 1.11 0 0 0 8.665 10c0-.265-.087-.52-.244-.707A.77.77 0 0 0 7.833 9H6.166a.77.77 0 0 0-.589.293 1.11 1.11 0 0 0-.244.707c0 .265.088.52.244.707a.77.77 0 0 0 .59.293Z"
    fill="#000" />
</svg>
