<svg width="20" height="21" fill="none">
  <path fill="#000" fill-rule="evenodd" d="M3.333 3.973a.833.833 0 0 0-.833.834v8.333c0 .46.373.833.833.833h13.334c.46 0 .833-.373.833-.833V4.807a.833.833 0 0 0-.833-.834H3.333Zm-2.5.834a2.5 2.5 0 0 1 2.5-2.5h13.334a2.5 2.5 0 0 1 2.5 2.5v8.333a2.5 2.5 0 0 1-2.5 2.5H3.333a2.5 2.5 0 0 1-2.5-2.5V4.807ZM5.833 18.14c0-.46.374-.833.834-.833h6.667a.833.833 0 0 1 0 1.666H6.667a.833.833 0 0 1-.833-.833Z" clip-rule="evenodd"/>
  <path fill="#000" fill-rule="evenodd" d="M10 13.975c.46 0 .833.373.833.833v3.333a.833.833 0 0 1-1.667 0v-3.333c0-.46.374-.833.834-.833ZM5 7.216c0-.46.373-.833.833-.833h8.334a.833.833 0 0 1 0 1.666H5.833A.833.833 0 0 1 5 7.216ZM5 10.716c0-.46.373-.833.833-.833h8.334a.833.833 0 0 1 0 1.667H5.833A.833.833 0 0 1 5 10.716Z" clip-rule="evenodd"/>
</svg>
