<svg width="20" height="20" viewBox="0 0 20 20" fill="none" xmlns="http://www.w3.org/2000/svg">
<path fill-rule="evenodd" clip-rule="evenodd" d="M4.16663 3.33332C3.94561 3.33332 3.73365 3.42112 3.57737 3.5774C3.42109 3.73368 3.33329 3.94564 3.33329 4.16666V15.8333C3.33329 16.0543 3.42109 16.2663 3.57737 16.4226C3.73365 16.5789 3.94561 16.6667 4.16663 16.6667H15.8333C16.0543 16.6667 16.2663 16.5789 16.4225 16.4226C16.5788 16.2663 16.6666 16.0543 16.6666 15.8333V7.01184L12.9881 3.33332H4.16663ZM2.39886 2.39889C2.8677 1.93005 3.50358 1.66666 4.16663 1.66666H13.3333C13.5543 1.66666 13.7663 1.75445 13.9225 1.91073L18.0892 6.0774C18.2455 6.23368 18.3333 6.44564 18.3333 6.66666V15.8333C18.3333 16.4964 18.0699 17.1323 17.6011 17.6011C17.1322 18.0699 16.4963 18.3333 15.8333 18.3333H4.16663C3.50358 18.3333 2.8677 18.0699 2.39886 17.6011C1.93002 17.1322 1.66663 16.4964 1.66663 15.8333V4.16666C1.66663 3.50362 1.93002 2.86773 2.39886 2.39889Z" fill="#777D8E"/>
<path fill-rule="evenodd" clip-rule="evenodd" d="M5 10.8333C5 10.3731 5.3731 10 5.83333 10H14.1667C14.6269 10 15 10.3731 15 10.8333V17.5C15 17.9602 14.6269 18.3333 14.1667 18.3333C13.7064 18.3333 13.3333 17.9602 13.3333 17.5V11.6667H6.66667V17.5C6.66667 17.9602 6.29357 18.3333 5.83333 18.3333C5.3731 18.3333 5 17.9602 5 17.5V10.8333Z" fill="#777D8E"/>
<path fill-rule="evenodd" clip-rule="evenodd" d="M5.83333 1.66666C6.29357 1.66666 6.66667 2.03975 6.66667 2.49999V5.83332H12.5C12.9602 5.83332 13.3333 6.20642 13.3333 6.66666C13.3333 7.12689 12.9602 7.49999 12.5 7.49999H5.83333C5.3731 7.49999 5 7.12689 5 6.66666V2.49999C5 2.03975 5.3731 1.66666 5.83333 1.66666Z" fill="#777D8E"/>
</svg>
