<svg fill="none" xmlns="http://www.w3.org/2000/svg" viewBox="0 0 20 20">
  <path
    d="M5 14a1 1 0 1 0 0 2 1 1 0 0 0 0-2Zm12.06-4 1.23-1.23a3 3 0 0 0 0-4.24l-2.83-2.82a3 3 0 0 0-4.24 0L10 2.94A3 3 0 0 0 7 0H3a3 3 0 0 0-3 3v14a3 3 0 0 0 3 3h14a3 3 0 0 0 3-3v-4a3 3 0 0 0-2.94-3ZM8 17a1 1 0 0 1-1 1H3a1 1 0 0 1-1-1V3a1 1 0 0 1 1-1h4a1 1 0 0 1 1 1v14Zm2-11.24 2.64-2.64a1 1 0 0 1 1.41 0L16.88 6a1 1 0 0 1 0 1.41L14 10.29l-4 3.95V5.76ZM18 17a1 1 0 0 1-1 1H9.82a3.12 3.12 0 0 0 .17-.92L15.07 12H17a1 1 0 0 1 1 1v4Z"
    fill="#000" />
</svg>
