<svg xmlns="http://www.w3.org/2000/svg" xmlns:xlink="http://www.w3.org/1999/xlink" viewBox="0 0 24 24">
  <g fill="none" fill-rule="evenodd">
    <path fill="currentColor" d="M18 1a4 4 0 11-2.841 6.815L9.85 10.912a4.003 4.003 0 010 2.175l5.312 3.095a4 4 0 11-1.01 1.727l-5.31-3.094a4 4 0 110-5.63l5.308-3.097A4.003 4.003 0 0118 1zm0 16c-.695 0-1.308.355-1.666.894l-.05.1a1.01 1.01 0 01-.065.097l-.033.066A2 2 0 1018 17zM6 10a2 2 0 101.716 3.027l.01-.02.024-.038c.16-.287.25-.618.25-.969a1.99 1.99 0 00-.254-.976l-.02-.03A1.992 1.992 0 006 10zm12-7a2 2 0 00-1.75 2.969l.024.037.01.017A2 2 0 1018 3z" id="a"/>
  </g>
</svg>
