<?xml version="1.0" encoding="UTF-8"?>
<svg xmlns="http://www.w3.org/2000/svg" xmlns:xlink="http://www.w3.org/1999/xlink" viewBox="0 0 24 24">
  <title>Sort By Filled</title>
  <g id="icon/sort-by-fill" stroke="none" stroke-width="1" fill="none" fill-rule="evenodd">
    <path fill="currentColor" d="M19 2a3 3 0 013 3v14a3 3 0 01-3 3H5a3 3 0 01-3-3V5a3 3 0 013-3h14zM8.5 10l-.095.007a.719.719 0 00-.605.72v4.79l-1.605-1.668-.087-.076a.68.68 0 00-.903.076.747.747 0 000 1.029l2.8 2.909.066.06.043.032a.707.707 0 00.026.017l.026.016A.67.67 0 008.5 18c.005 0 .002 0 0 0l.051-.002.05-.006a.865.865 0 00.106-.024.799.799 0 00.085-.034l.042-.022a.717.717 0 00.161-.125l2.8-2.91.074-.09a.749.749 0 00-.074-.938l-.087-.076a.68.68 0 00-.903.076l-1.606 1.669.001-4.79-.006-.1A.71.71 0 008.5 10zm7-4a.68.68 0 00-.386.12l-.043.032-.066.061-2.8 2.91a.747.747 0 000 1.028.68.68 0 00.903.076l.087-.076L14.8 8.483v4.79c0 .368.263.672.605.72L15.5 14a.71.71 0 00.694-.629l.006-.098-.001-4.791 1.606 1.669a.68.68 0 00.903.076l.087-.076a.749.749 0 00.074-.939l-.074-.09-2.8-2.909a.712.712 0 00-.161-.125l-.042-.022a.685.685 0 00-.19-.058l-.05-.006L15.5 6z" id="path-1"/>
  </g>
</svg>
