<svg xmlns="http://www.w3.org/2000/svg" xmlns:xlink="http://www.w3.org/1999/xlink" viewBox="0 0 24 24">
  <title>Sort By</title>
  <g id="icon/sort-by" stroke="none" stroke-width="1" fill="none" fill-rule="evenodd">
    <path fill="currentColor" d="M19 2a3 3 0 013 3v14a3 3 0 01-3 3H5a3 3 0 01-3-3V5a3 3 0 013-3h14zm0 2H5a1 1 0 00-1 1v14a1 1 0 001 1h14a1 1 0 001-1V5a1 1 0 00-1-1zM8.5 10a.71.71 0 01.694.629l.006.098-.001 4.791 1.606-1.669a.68.68 0 01.903-.076l.087.076c.246.256.27.655.074.939l-.074.09-2.8 2.909a.712.712 0 01-.161.125l-.042.022a.685.685 0 01-.19.058l-.05.006L8.5 18c.002 0 .005 0 0 0a.68.68 0 01-.386-.12l-.043-.033-.066-.06-2.8-2.91a.747.747 0 010-1.028.68.68 0 01.903-.076l.087.076L7.8 15.517v-4.79c0-.368.263-.672.605-.72L8.5 10zm7-4l.051.002.05.006a.865.865 0 01.106.024.799.799 0 01.085.034l.042.022a.717.717 0 01.161.125l2.8 2.91.074.09a.749.749 0 01-.074.938l-.087.076a.68.68 0 01-.903-.076l-1.606-1.669.001 4.79-.006.1A.71.71 0 0115.5 14l-.095-.007a.719.719 0 01-.605-.72v-4.79l-1.605 1.668-.087.076a.68.68 0 01-.903-.076.747.747 0 010-1.029l2.8-2.909.066-.061.043-.031a.706.706 0 01.026-.017l.026-.016A.67.67 0 0115.5 6z" id="path-1"/>
  </g>
</svg>
