<svg viewBox="0 0 16 14" xmlns="http://www.w3.org/2000/svg">
  <path fill="#000" fill-rule="evenodd" clip-rule="evenodd"
    d="M6 6.99992C4.15905 6.99992 2.66667 5.50753 2.66667 3.66658C2.66667 1.82564 4.15905 0.333252 6 0.333252C7.84095 0.333252 9.33333 1.82564 9.33333 3.66658C9.33333 5.50753 7.84095 6.99992 6 6.99992ZM12 12.9999V11.6666C12 9.82564 10.5076 8.33325 8.66667 8.33325H3.33333C1.49238 8.33325 0 9.82564 0 11.6666V12.9999C0 13.3681 0.298477 13.6666 0.666667 13.6666C1.03486 13.6666 1.33333 13.3681 1.33333 12.9999V11.6666C1.33333 10.562 2.22876 9.66658 3.33333 9.66658H8.66667C9.77124 9.66658 10.6667 10.562 10.6667 11.6666V12.9999C10.6667 13.3681 10.9651 13.6666 11.3333 13.6666C11.7015 13.6666 12 13.3681 12 12.9999ZM16 11.6666V12.9999C16 13.3681 15.7015 13.6666 15.3333 13.6666C14.9651 13.6666 14.6667 13.3681 14.6667 12.9999V11.6671C14.666 10.7556 14.0492 9.95994 13.1667 9.73208C12.8102 9.64004 12.5958 9.27642 12.6878 8.91992C12.7799 8.56342 13.1435 8.34904 13.5 8.44109C14.9708 8.82085 15.9989 10.147 16 11.6666ZM10.5013 1.73242C11.3863 1.959 12.0052 2.75641 12.0052 3.66992C12.0052 4.58342 11.3863 5.38083 10.5013 5.60742C10.1446 5.69874 9.92951 6.06193 10.0208 6.41861C10.1122 6.77529 10.4753 6.99041 10.832 6.89908C12.307 6.52144 13.3386 5.19243 13.3386 3.66992C13.3386 2.14741 12.307 0.818393 10.832 0.440752C10.4753 0.349426 10.1122 0.564542 10.0208 0.921226C9.92951 1.27791 10.1446 1.64109 10.5013 1.73242ZM8 3.66659C8 4.77115 7.10457 5.66658 6 5.66658C4.89543 5.66658 4 4.77115 4 3.66659C4 2.56202 4.89543 1.66659 6 1.66659C7.10457 1.66659 8 2.56202 8 3.66659Z" />
</svg>
