<svg width="14" height="15" viewBox="0 0 14 15" fill="black" xmlns="http://www.w3.org/2000/svg">
  <path fill="black" fill-rule="evenodd" clip-rule="evenodd"
    d="M0 1.65263C0 1.28734 0.296058 0.991211 0.661264 0.991211H7.2739C7.44928 0.991211 7.61747 1.0609 7.74148 1.18494L13.4231 6.86793C13.7926 7.23971 14 7.74262 14 8.26683C14 8.79105 13.7926 9.29396 13.4231 9.66574L8.68074 14.4093C8.49655 14.5936 8.2776 14.7401 8.03688 14.84C7.79605 14.9398 7.53791 14.9912 7.27721 14.9912C7.01651 14.9912 6.75836 14.9398 6.51753 14.84C6.27676 14.7401 6.05803 14.5938 5.87381 14.4094L0.193952 8.7348C0.0697744 8.61074 0 8.44239 0 8.26683V1.65263Z" />
</svg>
