<svg viewBox="0 0 24 24" version="1.1" xmlns="http://www.w3.org/2000/svg" xmlns:xlink="http://www.w3.org/1999/xlink">
    <g id="icon/trash-2" stroke="none" stroke-width="1" fill="none" fill-rule="evenodd">
        <path fill="currentColor" d="M13.8,2 C15.2359403,2 16.4100697,3.13226902 16.4950725,4.56113488 L16.5,4.72727273 L16.5,5.636 L20.1,5.63636364 C20.5588212,5.63636364 20.9374518,5.98316835 20.9929877,6.43142011 L21,6.54545455 C21,7.00891028 20.6566633,7.39136543 20.2128941,7.44746235 L20.1,7.45454545 L19.2,7.454 L19.2,19.2727273 C19.2,20.7231721 18.0790537,21.9091613 16.6644765,21.9950227 L16.5,22 L7.5,22 C6.06405965,22 4.88993034,20.867731 4.80492754,19.4388651 L4.8,19.2727273 L4.799,7.454 L3.9,7.45454545 C3.44117882,7.45454545 3.06254822,7.10774074 3.00701228,6.65948898 L3,6.54545455 C3,6.08199881 3.34333667,5.69954366 3.78710591,5.64344675 L3.9,5.63636364 L7.499,5.636 L7.5,4.72727273 C7.5,3.27682793 8.62094633,2.09083873 10.0355235,2.00497732 L10.2,2 L13.8,2 Z M17.399,7.454 L6.599,7.454 L6.6,19.2727273 C6.6,19.736183 6.94333667,20.1186382 7.38710591,20.1747351 L7.5,20.1818182 L16.5,20.1818182 C16.9588212,20.1818182 17.3374518,19.8350135 17.3929877,19.3867617 L17.4,19.2727273 L17.399,7.454 Z M10.2,10.1818182 C10.6970563,10.1818182 11.1,10.588832 11.1,11.0909091 L11.1,11.0909091 L11.1,16.5454545 C11.1,17.0475316 10.6970563,17.4545455 10.2,17.4545455 C9.70294373,17.4545455 9.3,17.0475316 9.3,16.5454545 L9.3,16.5454545 L9.3,11.0909091 C9.3,10.588832 9.70294373,10.1818182 10.2,10.1818182 Z M13.8,10.1818182 C14.2970563,10.1818182 14.7,10.588832 14.7,11.0909091 L14.7,11.0909091 L14.7,16.5454545 C14.7,17.0475316 14.2970563,17.4545455 13.8,17.4545455 C13.3029437,17.4545455 12.9,17.0475316 12.9,16.5454545 L12.9,16.5454545 L12.9,11.0909091 C12.9,10.588832 13.3029437,10.1818182 13.8,10.1818182 Z M13.8,3.81818182 L10.2,3.81818182 C9.74117882,3.81818182 9.36254822,4.16498653 9.30701228,4.6132383 L9.3,4.72727273 L9.3,5.636 L14.7,5.636 L14.7,4.72727273 C14.7,4.26381699 14.3566633,3.88136184 13.9128941,3.82526493 L13.8,3.81818182 Z" id="path-1"></path>
    </g>
</svg>
