<?xml version="1.0" encoding="UTF-8"?>
<svg viewBox="0 0 24 24" version="1.1" xmlns="http://www.w3.org/2000/svg" xmlns:xlink="http://www.w3.org/1999/xlink">
    <g id="icon/trash-2-fill" stroke="none" stroke-width="1" fill="none" fill-rule="evenodd">
        <path fill="#000" d="M19.2,8.36260871 L19.2,19.2727273 C19.2,20.7789584 17.9911688,22 16.5,22 L16.5,22 L7.5,22 C6.00883118,22 4.8,20.7789584 4.8,19.2727273 L4.8,19.2727273 L4.8,8.36260871 L19.2,8.36260871 Z M10.2,11.0909091 C9.70294373,11.0909091 9.3,11.497923 9.3,12 L9.3,17.4545455 C9.3,17.9566225 9.70294373,18.3636364 10.2,18.3636364 C10.6970563,18.3636364 11.1,17.9566225 11.1,17.4545455 L11.1,12 C11.1,11.497923 10.6970563,11.0909091 10.2,11.0909091 Z M13.8,11.0909091 C13.3029437,11.0909091 12.9,11.497923 12.9,12 L12.9,17.4545455 C12.9,17.9566225 13.3029437,18.3636364 13.8,18.3636364 C14.2970563,18.3636364 14.7,17.9566225 14.7,17.4545455 L14.7,12 C14.7,11.497923 14.2970563,11.0909091 13.8,11.0909091 Z M13.8,2 C15.2359403,2 16.4100697,3.13226902 16.4950725,4.56113488 L16.5,4.72727273 L16.5,5.636 L20.1,5.63636364 C20.5588212,5.63636364 20.9374518,5.98316835 20.9929877,6.43142011 L21,6.54545455 C21,7.00891028 20.6566633,7.39136543 20.2128941,7.44746235 L20.1,7.45454545 L3.9,7.45454545 C3.40294373,7.45454545 3,7.04753159 3,6.54545455 C3,6.08199881 3.34333667,5.69954366 3.78710591,5.64344675 L3.9,5.63636364 L7.5,5.636 L7.5,4.72727273 C7.5,3.27682793 8.62094633,2.09083873 10.0355235,2.00497732 L10.2,2 L13.8,2 Z M13.8,3.81818182 L10.2,3.81818182 C9.74117882,3.81818182 9.36254822,4.16498653 9.30701228,4.6132383 L9.3,4.72727273 L9.299,5.636 L14.7,5.636 L14.7,4.72727273 C14.7,4.26381699 14.3566633,3.88136184 13.9128941,3.82526493 L13.8,3.81818182 Z" id="path-1"></path>
    </g>
</svg>
