<svg fill="none" xmlns="http://www.w3.org/2000/svg" viewBox="0 0 20 20">
  <path
    d="M14.5 3a4.86 4.86 0 0 0-2.5.69A6 6 0 0 0 .5 6v4a6 6 0 0 0 5 5.91V19a1 1 0 1 0 2 0v-3.09a6.08 6.08 0 0 0 2.78-1.26 5 5 0 0 0 3.22 2.25V19a1 1 0 0 0 2 0v-2.1a5 5 0 0 0 4-4.9V8a5 5 0 0 0-5-5Zm-5 5v4c.01.19.03.381.06.57a4 4 0 0 1-2.06 1.3V11a1 1 0 1 0-2 0v2.86a4 4 0 0 1-3-3.86V6a4 4 0 0 1 6.83-2.84 3.94 3.94 0 0 1 1.06 2A5 5 0 0 0 9.5 8Zm8 4a3 3 0 0 1-2 2.82V11a1 1 0 0 0-2 0v3.82a3 3 0 0 1-2-2.82V8a3 3 0 0 1 6 0v4Z"
    fill="#000" />
</svg>
