<svg width="24px" height="24px" viewBox="0 0 24 24" version="1.1" xmlns="http://www.w3.org/2000/svg" xmlns:xlink="http://www.w3.org/1999/xlink">
    <g id="icon/twitter-fill" stroke="none" stroke-width="1" fill="none" fill-rule="evenodd">
        <path fill="currentColor" d="M21.5534714,3.1740689 C22.2454796,2.69408556 23.172628,3.31469925 22.9722499,4.12376941 C22.6583049,5.39139018 22.0289983,6.55978172 21.1440257,7.52537202 C21.1576603,7.67134881 21.1647456,7.81828017 21.16524,7.96606174 C21.16524,18.6541562 10.6747112,24.1446915 1.47325669,19.118037 C0.629434873,18.6570663 0.990249215,17.3919748 1.95478399,17.4297003 C3.5005832,17.4901605 5.03080446,17.1879633 6.42227132,16.5577149 C4.40213638,15.3333029 3.10860723,13.7122937 2.47403556,11.7946742 C1.81884004,9.8147313 1.91447463,7.7340625 2.4610751,5.75802055 C2.62641902,5.1602777 2.79447281,4.70988848 2.91386881,4.44572831 C3.20318735,3.80561943 4.09202888,3.72056129 4.50143241,4.2938056 C6.03347319,6.43895972 8.45586003,7.77806172 11.0832815,7.97192496 C11.0692028,5.91302613 12.3562848,4.05992033 14.3147182,3.32489452 C16.0857904,2.66018786 18.0670299,3.03704717 19.453924,4.25752943 C20.1982234,3.98850019 20.9041945,3.62441345 21.5534714,3.1740689 Z" id="path-1"></path>
    </g>
</svg>
