<svg xmlns="http://www.w3.org/2000/svg" xmlns:xlink="http://www.w3.org/1999/xlink" viewBox="0 0 24 24">
  <g id="icon/twitter" stroke="none" stroke-width="1" fill="none" fill-rule="evenodd">
    <path fill="currentColor" d="M21.553 3.174c.692-.48 1.62.14 1.42.95a7.817 7.817 0 01-1.829 3.401c.014.146.02.293.021.441 0 10.688-10.49 16.179-19.692 11.152-.844-.46-.483-1.726.482-1.688a9.894 9.894 0 004.467-.872c-2.02-1.225-3.313-2.846-3.948-4.763-.655-1.98-.56-4.06-.013-6.037a9.527 9.527 0 01.453-1.312c.29-.64 1.178-.725 1.587-.152a8.888 8.888 0 006.582 3.678c-.014-2.059 1.273-3.912 3.232-4.647a5.088 5.088 0 015.139.933 9.128 9.128 0 002.1-1.084zm-2.085 2.978a.926.926 0 01-.956-.271 3.226 3.226 0 00-3.544-.872 3.141 3.141 0 00-2.051 2.984v.901a.908.908 0 01-.893.901 10.782 10.782 0 01-7.902-3.142c-.362 1.537-.389 3.122.095 4.584.62 1.875 2.041 3.397 4.49 4.467a.894.894 0 01.142 1.57 11.674 11.674 0 01-3.327 1.528c7.038 1.82 13.81-2.773 13.81-10.833 0-.195-.02-.39-.057-.582a.892.892 0 01.257-.81 6.09 6.09 0 00.566-.632c-.207.075-.418.145-.63.207z" id="path-1"/>
  </g>
</svg>
