<svg width="21" height="20" viewBox="0 0 21 20" xmlns="http://www.w3.org/2000/svg">
  <path fill="#000" fill-rule="evenodd" clip-rule="evenodd"
    d="M8.35092 1.71562C5.26633 1.36342 2.28361 2.94813 0.848931 5.70139C-0.585744 8.45465 -0.175757 11.8072 1.88011 14.1336C2.18487 14.4785 2.71151 14.511 3.05638 14.2063C3.40125 13.9015 3.43376 13.3749 3.129 13.03C1.52999 11.2206 1.21111 8.61299 2.32697 6.47157C3.44283 4.33015 5.76273 3.09759 8.16185 3.37152C10.561 3.64545 12.5433 5.36923 13.1477 7.70708C13.2428 8.07488 13.5746 8.33182 13.9545 8.33182H15.0045C16.5275 8.33282 17.8564 9.36657 18.2321 10.8429C18.6079 12.3193 17.9349 13.8626 16.5973 14.5918C16.1932 14.8121 16.0443 15.3183 16.2645 15.7224C16.4848 16.1265 16.991 16.2754 17.3951 16.0552C19.4015 14.9613 20.411 12.6464 19.8473 10.4318C19.2836 8.21727 17.2903 6.66666 15.0051 6.66515H14.5706C13.6215 3.98031 11.2176 2.04293 8.35092 1.71562ZM13.9271 13.9211C13.6017 14.2465 13.0741 14.2465 12.7486 13.9211L10.8379 12.0103V17.4985C10.8379 17.9587 10.4648 18.3318 10.0046 18.3318C9.54431 18.3318 9.17122 17.9587 9.17122 17.4985V12.0103L7.26047 13.9211C6.93504 14.2465 6.4074 14.2465 6.08196 13.9211C5.75652 13.5956 5.75652 13.068 6.08196 12.7426L9.41491 9.40962L9.4153 9.40923C9.41588 9.40864 9.41647 9.40805 9.41706 9.40747C9.5776 9.24787 9.78693 9.16711 9.99686 9.16519L10.0046 9.16515L10.0122 9.16519M10.3226 9.22801C10.2272 9.18857 10.1228 9.16634 10.0134 9.1652L10.3226 9.22801ZM13.9271 13.9211C14.2526 13.5956 14.2526 13.068 13.9271 12.7426V13.9211ZM13.9271 12.7426L10.5938 9.40923L13.9271 12.7426ZM10.5938 9.40923C10.5137 9.32914 10.4214 9.26876 10.3228 9.22809L10.5938 9.40923Z" />
  <mask fill="white" id="mask0_23538_180599" style="mask-type:alpha" maskUnits="userSpaceOnUse" x="0" y="1" width="21" height="18">
    <path fill-rule="evenodd" clip-rule="evenodd"
      d="M8.35092 1.71562C5.26633 1.36342 2.28361 2.94813 0.848931 5.70139C-0.585744 8.45465 -0.175757 11.8072 1.88011 14.1336C2.18487 14.4785 2.71151 14.511 3.05638 14.2063C3.40125 13.9015 3.43376 13.3749 3.129 13.03C1.52999 11.2206 1.21111 8.61299 2.32697 6.47157C3.44283 4.33015 5.76273 3.09759 8.16185 3.37152C10.561 3.64545 12.5433 5.36923 13.1477 7.70708C13.2428 8.07488 13.5746 8.33182 13.9545 8.33182H15.0045C16.5275 8.33282 17.8564 9.36657 18.2321 10.8429C18.6079 12.3193 17.9349 13.8626 16.5973 14.5918C16.1932 14.8121 16.0443 15.3183 16.2645 15.7224C16.4848 16.1265 16.991 16.2754 17.3951 16.0552C19.4015 14.9613 20.411 12.6464 19.8473 10.4318C19.2836 8.21727 17.2903 6.66666 15.0051 6.66515H14.5706C13.6215 3.98031 11.2176 2.04293 8.35092 1.71562ZM13.9271 13.9211C13.6017 14.2465 13.0741 14.2465 12.7486 13.9211L10.8379 12.0103V17.4985C10.8379 17.9587 10.4648 18.3318 10.0046 18.3318C9.54431 18.3318 9.17122 17.9587 9.17122 17.4985V12.0103L7.26047 13.9211C6.93504 14.2465 6.4074 14.2465 6.08196 13.9211C5.75652 13.5956 5.75652 13.068 6.08196 12.7426L9.41491 9.40962L9.4153 9.40923C9.41588 9.40864 9.41647 9.40805 9.41706 9.40747C9.5776 9.24787 9.78693 9.16711 9.99686 9.16519L10.0046 9.16515L10.0122 9.16519M10.3226 9.22801C10.2272 9.18857 10.1228 9.16634 10.0134 9.1652L10.3226 9.22801ZM13.9271 13.9211C14.2526 13.5956 14.2526 13.068 13.9271 12.7426V13.9211ZM13.9271 12.7426L10.5938 9.40923L13.9271 12.7426ZM10.5938 9.40923C10.5137 9.32914 10.4214 9.26876 10.3228 9.22809L10.5938 9.40923Z" />
  </mask>
  <g fill="#000" mask="url(#mask0_23538_180599)">
    <rect width="20" height="20" />
  </g>
</svg>
