<svg xmlns="http://www.w3.org/2000/svg" xmlns:xlink="http://www.w3.org/1999/xlink" viewBox="0 0 24 24">
  <defs>
    <path id="path-1" d="M6 16.5a1.5 1.5 0 110 3 1.5 1.5 0 010-3zm6 0a1.5 1.5 0 110 3 1.5 1.5 0 010-3zm6 0a1.5 1.5 0 110 3 1.5 1.5 0 010-3zm0-6a1.5 1.5 0 110 3 1.5 1.5 0 010-3zm-6 0a1.5 1.5 0 110 3 1.5 1.5 0 010-3zm-6 0a1.5 1.5 0 110 3 1.5 1.5 0 010-3zm0-6a1.5 1.5 0 110 3 1.5 1.5 0 010-3zm6 0a1.5 1.5 0 110 3 1.5 1.5 0 010-3zm6 0a1.5 1.5 0 110 3 1.5 1.5 0 010-3z"/>
  </defs>
  <g id="icon/calendar-02" fill="none" fill-rule="evenodd" stroke="none" stroke-width="1">
    <mask id="mask-2" fill="#fff">
      <use xlink:href="#path-1"/>
    </mask>
    <use id="calendar-02" fill="#2E384D" xlink:href="#path-1"/>
    <g id="Group" fill="#21242A" mask="url(#mask-2)">
      <g id="COLOR/-black">
        <path id="Color/Black" d="M0 0h24v24H0z"/>
      </g>
    </g>
  </g>
</svg>
