<svg xmlns="http://www.w3.org/2000/svg" xmlns:xlink="http://www.w3.org/1999/xlink" viewBox="0 0 24 24">
  <g id="icon/whatsapp-fill" stroke="none" stroke-width="1" fill="none" fill-rule="evenodd">
    <path fill="currentColor" d="M12.046 1a10.91 10.91 0 0 1 7.749 3.197A10.808 10.808 0 0 1 23 11.91c-.002 6.011-4.917 10.902-10.954 10.902-1.838 0-3.639-.458-5.24-1.327L1 23l1.554-5.649a10.842 10.842 0 0 1-1.462-5.45C1.094 5.89 6.008 1 12.046 1ZM8.168 6.866c-.183 0-.48.069-.73.341-.251.273-.958.932-.958 2.273 0 1.34.98 2.636 1.118 2.818.136.181 1.93 2.933 4.675 4.112.653.281 1.163.449 1.56.574.656.208 1.253.178 1.725.108.525-.078 1.619-.659 1.847-1.295.228-.636.228-1.182.16-1.295-.069-.114-.251-.182-.525-.318-.274-.137-1.62-.796-1.87-.887-.25-.09-.434-.136-.616.137-.182.272-.707.886-.867 1.068-.16.182-.319.204-.593.068l-.12-.055-.168-.073-.21-.094a7.026 7.026 0 0 1-1.703-1.13c-.813-.722-1.363-1.614-1.522-1.887-.16-.273-.002-.406.12-.556.296-.366.593-.75.684-.932.091-.181.046-.34-.023-.477-.068-.136-.616-1.477-.844-2.022-.222-.531-.448-.46-.616-.468-.16-.008-.342-.01-.524-.01Z" id="path-1"/>
  </g>
</svg>
