<svg xmlns="http://www.w3.org/2000/svg" xmlns:xlink="http://www.w3.org/1999/xlink" viewBox="0 0 24 24">
  <g id="icon/whatsapp" stroke="none" stroke-width="1" fill="none" fill-rule="evenodd">
    <path fill="currentColor" d="M19.795 4.197A10.91 10.91 0 0 0 12.046 1C6.008 1 1.094 5.89 1.092 11.9c0 1.922.503 3.798 1.462 5.451L1 23l5.807-1.516c1.6.869 3.401 1.326 5.235 1.327h.004c6.037 0 10.952-4.89 10.954-10.902a10.808 10.808 0 0 0-3.205-7.712ZM12.046 20.97h-.004a9.127 9.127 0 0 1-4.634-1.263l-.332-.197-3.446.9.92-3.344-.217-.342A9.007 9.007 0 0 1 2.941 11.9c.002-4.995 4.087-9.06 9.109-9.06 2.432.001 4.718.945 6.436 2.657a8.985 8.985 0 0 1 2.665 6.41c-.003 4.997-4.087 9.062-9.105 9.062Zm4.994-6.786c-.274-.137-1.62-.796-1.87-.887-.25-.09-.434-.136-.616.137-.182.272-.707.886-.867 1.068-.16.182-.319.204-.593.068-.273-.136-1.155-.424-2.2-1.352-.814-.722-1.364-1.614-1.523-1.887-.16-.273-.002-.406.12-.556.296-.366.593-.75.684-.932.091-.181.046-.34-.023-.477-.068-.136-.616-1.477-.844-2.022-.222-.531-.448-.46-.616-.468-.16-.008-.342-.01-.524-.01-.183 0-.48.069-.73.341-.251.273-.958.932-.958 2.273 0 1.34.98 2.636 1.118 2.818.136.181 1.93 2.933 4.675 4.112.653.281 1.163.449 1.56.574.656.208 1.253.178 1.725.108.525-.078 1.619-.659 1.847-1.295.228-.636.228-1.182.16-1.295-.069-.114-.251-.182-.525-.318Z" id="path-1"/>
  </g>
</svg>
